# Blender 4.2.9 LTS
# www.blender.org
o logo_847E87
v -0.352941 0.044966 -0.323529
v -0.323529 0.044966 -0.382353
v -0.294118 0.044966 -0.382353
v -0.264706 0.044966 -0.352941
v -0.264706 0.044966 -0.382353
v -0.235294 0.044966 -0.352941
v -0.235294 0.044966 -0.382353
v -0.205882 0.044966 -0.352941
v -0.205882 0.044966 -0.382353
v -0.147059 0.044966 -0.352941
v -0.117647 0.044966 -0.352941
v -0.117647 0.044966 -0.382353
v -0.088235 0.044966 -0.382353
v -0.029412 0.044966 -0.352941
v -0.029412 0.044966 -0.382353
v 0.029412 0.044966 -0.352941
v 0.088235 0.044966 -0.382353
v 0.117647 0.044966 -0.352941
v 0.117647 0.044966 -0.382353
v 0.147059 0.044966 -0.352941
v 0.147059 0.044966 -0.382353
v 0.176471 0.044966 -0.352941
v 0.176471 0.044966 -0.382353
v 0.235294 0.044966 -0.382353
v 0.264706 0.044966 -0.352941
v 0.264706 0.044966 -0.382353
v 0.294118 0.044966 -0.352941
v 0.294118 0.044966 -0.382353
v 0.323529 0.044966 -0.323529
v 0.323529 0.044966 -0.352941
v 0.323529 0.044966 -0.382353
v 0.352941 0.044966 -0.323529
v 0.352941 0.044966 -0.352941
v -0.323529 0.025640 -0.382353
v -0.294118 0.025640 -0.382353
v -0.264706 0.025640 -0.382353
v -0.235294 0.025640 -0.382353
v -0.205882 0.025640 -0.382353
v -0.176471 0.025640 -0.382353
v -0.147059 0.025640 -0.382353
v -0.117647 0.025640 -0.382353
v -0.088235 0.025640 -0.382353
v -0.058824 0.025640 -0.382353
v -0.029412 0.025640 -0.382353
v 0.000000 0.025640 -0.382353
v 0.029412 0.025640 -0.382353
v 0.058824 0.025640 -0.382353
v 0.088235 0.025640 -0.382353
v 0.117647 0.025640 -0.382353
v 0.147059 0.025640 -0.382353
v 0.176471 0.025640 -0.382353
v 0.205882 0.025640 -0.382353
v 0.235294 0.025640 -0.382353
v 0.264706 0.025640 -0.382353
v 0.294118 0.025640 -0.382353
v 0.323529 0.025640 -0.382353
v -0.352941 0.044966 -0.352941
v -0.323529 0.044966 -0.323529
v -0.323529 0.044966 -0.352941
v -0.294118 0.044966 -0.352941
v -0.176471 0.044966 -0.352941
v -0.176471 0.044966 -0.382353
v -0.147059 0.044966 -0.382353
v -0.088235 0.044966 -0.352941
v -0.058824 0.044966 -0.352941
v -0.058824 0.044966 -0.382353
v 0.000000 0.044966 -0.352941
v 0.000000 0.044966 -0.382353
v 0.029412 0.044966 -0.382353
v 0.058824 0.044966 -0.352941
v 0.058824 0.044966 -0.382353
v 0.088235 0.044966 -0.352941
v 0.205882 0.044966 -0.352941
v 0.205882 0.044966 -0.382353
v 0.235294 0.044966 -0.352941
v -0.323529 0.058284 -0.323529
v -0.323529 0.058284 -0.352941
v -0.294118 0.058284 -0.352941
v 0.294118 0.058284 -0.352941
v 0.323529 0.058284 -0.323529
v 0.323529 0.058284 -0.352941
v -0.323529 0.070896 -0.323529
v -0.323529 0.070896 -0.352941
v -0.294118 0.070896 -0.323529
v -0.294118 0.070896 -0.352941
v 0.294118 0.070896 -0.323529
v 0.294118 0.070896 -0.352941
v 0.323529 0.070896 -0.323529
v 0.323529 0.070896 -0.352941
v -0.323529 0.063195 0.264706
v -0.323529 0.063195 0.235294
v -0.323529 0.063195 0.205882
v -0.323529 0.063195 0.176471
v -0.323529 0.063195 0.147059
v -0.323529 0.063195 0.117647
v -0.323529 0.063195 0.088235
v -0.323529 0.063195 0.058824
v -0.323529 0.063195 0.029412
v -0.323529 0.063195 0.000000
v -0.323529 0.063195 -0.029412
v -0.323529 0.063195 -0.058824
v -0.323529 0.063195 -0.088235
v -0.323529 0.063195 -0.117647
v -0.323529 0.063195 -0.147059
v -0.323529 0.063195 -0.176471
v -0.323529 0.063195 -0.205882
v -0.323529 0.063195 -0.235294
v -0.323529 0.063195 -0.264706
v -0.323529 0.063195 -0.294118
v -0.294118 0.063195 0.294118
v -0.294118 0.063195 0.264706
v -0.294118 0.063195 0.235294
v -0.294118 0.063195 0.205882
v -0.294118 0.063195 0.176471
v -0.294118 0.063195 0.147059
v -0.294118 0.063195 0.117647
v -0.294118 0.063195 0.088235
v -0.294118 0.063195 0.058824
v -0.294118 0.063195 0.029412
v -0.294118 0.063195 0.000000
v -0.294118 0.063195 -0.029412
v -0.294118 0.063195 -0.058824
v -0.294118 0.063195 -0.088235
v -0.294118 0.063195 -0.117647
v -0.294118 0.063195 -0.147059
v -0.294118 0.063195 -0.176471
v -0.294118 0.063195 -0.205882
v -0.294118 0.063195 -0.235294
v -0.294118 0.063195 -0.264706
v -0.294118 0.063195 -0.294118
v -0.294118 0.063195 -0.323529
v -0.264706 0.063195 0.294118
v -0.264706 0.063195 0.264706
v -0.264706 0.063195 -0.294118
v -0.264706 0.063195 -0.323529
v -0.176471 0.063195 0.323529
v -0.176471 0.063195 0.294118
v -0.147059 0.063195 0.323529
v -0.147059 0.063195 0.294118
v -0.117647 0.063195 0.323529
v -0.117647 0.063195 0.294118
v -0.088235 0.063195 0.323529
v -0.088235 0.063195 0.294118
v -0.058824 0.063195 0.323529
v -0.058824 0.063195 0.294118
v -0.029412 0.063195 0.323529
v -0.029412 0.063195 0.294118
v -0.000000 0.063195 0.323529
v -0.000000 0.063195 0.294118
v 0.029412 0.063195 0.323529
v 0.029412 0.063195 0.294118
v 0.058824 0.063195 0.323529
v 0.058824 0.063195 0.294118
v 0.088235 0.063195 0.323529
v 0.088235 0.063195 0.294118
v 0.117647 0.063195 0.323529
v 0.117647 0.063195 0.294118
v 0.147059 0.063195 0.323529
v 0.147059 0.063195 0.294118
v 0.176471 0.063195 0.323529
v 0.176471 0.063195 0.294118
v 0.205882 0.063195 0.323529
v 0.205882 0.063195 0.294118
v 0.235294 0.063195 0.323529
v 0.235294 0.063195 0.294118
v 0.264706 0.063195 0.323529
v 0.264706 0.063195 0.294118
v 0.264706 0.063195 0.264706
v 0.264706 0.063195 -0.294118
v 0.264706 0.063195 -0.323529
v 0.294118 0.063195 0.294118
v 0.294118 0.063195 0.264706
v 0.294118 0.063195 -0.235294
v 0.294118 0.063195 -0.264706
v 0.294118 0.063195 -0.294118
v 0.294118 0.063195 -0.323529
v 0.323529 0.063195 0.264706
v 0.323529 0.063195 0.235294
v 0.323529 0.063195 -0.235294
v 0.323529 0.063195 -0.264706
v 0.323529 0.063195 -0.294118
v -0.294118 0.057315 0.264706
v -0.294118 0.057315 0.235294
v -0.294118 0.057315 0.205882
v -0.294118 0.057315 0.176471
v -0.294118 0.057315 0.147059
v -0.294118 0.057315 0.117647
v -0.294118 0.057315 0.088235
v -0.294118 0.057315 0.058824
v -0.294118 0.057315 0.029412
v -0.294118 0.057315 0.000000
v -0.294118 0.057315 -0.029412
v -0.294118 0.057315 -0.058824
v -0.294118 0.057315 -0.088235
v -0.294118 0.057315 -0.117647
v -0.294118 0.057315 -0.147059
v -0.294118 0.057315 -0.176471
v -0.294118 0.057315 -0.205882
v -0.294118 0.057315 -0.235294
v -0.264706 0.057315 0.294118
v -0.264706 0.057315 0.264706
v -0.176471 0.057315 0.294118
v -0.147059 0.057315 0.294118
v -0.117647 0.057315 0.294118
v -0.088235 0.057315 0.294118
v -0.058824 0.057315 0.294118
v -0.029412 0.057315 0.294118
v -0.000000 0.057315 0.294118
v 0.029412 0.057315 0.294118
v 0.058824 0.057315 0.294118
v 0.088235 0.057315 0.294118
v 0.117647 0.057315 0.294118
v 0.147059 0.057315 0.294118
v 0.176471 0.057315 0.294118
v 0.205882 0.057315 0.294118
v 0.235294 0.057315 0.294118
v 0.264706 0.057315 0.294118
v 0.264706 0.057315 0.264706
v 0.294118 0.057315 0.264706
v 0.294118 0.057315 -0.205882
v 0.294118 0.057315 -0.235294
v 0.294118 0.063195 0.235294
v 0.294118 0.063195 0.205882
v 0.294118 0.063195 0.176471
v 0.294118 0.063195 0.147059
v 0.294118 0.063195 0.117647
v 0.294118 0.063195 0.088235
v 0.294118 0.063195 0.058824
v 0.294118 0.063195 0.029412
v 0.294118 0.063195 0.000000
v 0.294118 0.063195 -0.029412
v 0.294118 0.063195 -0.058824
v 0.294118 0.063195 -0.088235
v 0.294118 0.063195 -0.117647
v 0.294118 0.063195 -0.147059
v 0.294118 0.063195 -0.176471
v 0.294118 0.063195 -0.205882
v 0.323529 0.063195 0.205882
v 0.323529 0.063195 0.176471
v 0.323529 0.063195 0.147059
v 0.323529 0.063195 0.117647
v 0.323529 0.063195 0.088235
v 0.323529 0.063195 0.058824
v 0.323529 0.063195 0.029412
v 0.323529 0.063195 0.000000
v 0.323529 0.063195 -0.029412
v 0.323529 0.063195 -0.058824
v 0.323529 0.063195 -0.088235
v 0.323529 0.063195 -0.117647
v 0.323529 0.063195 -0.147059
v 0.323529 0.063195 -0.176471
v 0.323529 0.063195 -0.205882
v 0.294118 0.057315 0.235294
v 0.294118 0.057315 0.205882
v 0.294118 0.057315 0.176471
v 0.294118 0.057315 0.147059
v 0.294118 0.057315 0.117647
v 0.294118 0.057315 0.088235
v 0.294118 0.057315 0.058824
v 0.294118 0.057315 0.029412
v 0.294118 0.057315 0.000000
v 0.294118 0.057315 -0.029412
v 0.294118 0.057315 -0.058824
v 0.294118 0.057315 -0.088235
v 0.294118 0.057315 -0.117647
v 0.294118 0.057315 -0.147059
v 0.294118 0.057315 -0.176471
vn -0.0000 1.0000 -0.0000
vn -0.0000 -0.0000 -1.0000
vn 1.0000 -0.0000 -0.0000
vn -1.0000 -0.0000 -0.0000
s 0
f 29//1 32//1 33//1 30//1
f 27//1 30//1 31//1 28//1
f 25//1 27//1 28//1 26//1
f 75//1 25//1 26//1 24//1
f 73//1 75//1 24//1 74//1
f 22//1 73//1 74//1 23//1
f 20//1 22//1 23//1 21//1
f 18//1 20//1 21//1 19//1
f 72//1 18//1 19//1 17//1
f 70//1 72//1 17//1 71//1
f 16//1 70//1 71//1 69//1
f 67//1 16//1 69//1 68//1
f 14//1 67//1 68//1 15//1
f 65//1 14//1 15//1 66//1
f 64//1 65//1 66//1 13//1
f 11//1 64//1 13//1 12//1
f 10//1 11//1 12//1 63//1
f 61//1 10//1 63//1 62//1
f 8//1 61//1 62//1 9//1
f 6//1 8//1 9//1 7//1
f 4//1 6//1 7//1 5//1
f 60//1 4//1 5//1 3//1
f 59//1 60//1 3//1 2//1
f 1//1 58//1 59//1 57//1
f 38//2 37//2 7//2 9//2
f 54//2 53//2 24//2 26//2
f 47//2 46//2 69//2 71//2
f 40//2 39//2 62//2 63//2
f 56//2 55//2 28//2 31//2
f 49//2 48//2 17//2 19//2
f 42//2 41//2 12//2 13//2
f 35//2 34//2 2//2 3//2
f 51//2 50//2 21//2 23//2
f 44//2 43//2 66//2 15//2
f 37//2 36//2 5//2 7//2
f 53//2 52//2 74//2 24//2
f 46//2 45//2 68//2 69//2
f 39//2 38//2 9//2 62//2
f 55//2 54//2 26//2 28//2
f 48//2 47//2 71//2 17//2
f 41//2 40//2 63//2 12//2
f 50//2 49//2 19//2 21//2
f 43//2 42//2 13//2 66//2
f 36//2 35//2 3//2 5//2
f 52//2 51//2 23//2 74//2
f 45//2 44//2 15//2 68//2
f 29//3 30//3 81//3 80//3
f 60//2 59//2 77//2 78//2
f 30//2 27//2 79//2 81//2
f 59//4 58//4 76//4 77//4
f 80//3 81//3 89//3 88//3
f 78//2 77//2 83//2 85//2
f 81//2 79//2 87//2 89//2
f 77//4 76//4 82//4 83//4
f 86//1 88//1 89//1 87//1
f 82//1 84//1 85//1 83//1
f 172//1 177//1 178//1 222//1
f 237//1 252//1 179//1 173//1
f 174//1 180//1 181//1 175//1
f 167//1 171//1 172//1 168//1
f 169//1 175//1 176//1 170//1
f 164//1 166//1 167//1 165//1
f 160//1 162//1 163//1 161//1
f 158//1 160//1 161//1 159//1
f 156//1 158//1 159//1 157//1
f 154//1 156//1 157//1 155//1
f 152//1 154//1 155//1 153//1
f 150//1 152//1 153//1 151//1
f 148//1 150//1 151//1 149//1
f 146//1 148//1 149//1 147//1
f 144//1 146//1 147//1 145//1
f 142//1 144//1 145//1 143//1
f 140//1 142//1 143//1 141//1
f 136//1 138//1 139//1 137//1
f 155//2 157//2 212//2 211//2
f 123//3 122//3 193//3 194//3
f 141//2 143//2 205//2 204//2
f 237//4 173//4 221//4 220//4
f 122//3 121//3 192//3 193//3
f 121//3 120//3 191//3 192//3
f 120//3 119//3 190//3 191//3
f 153//2 155//2 211//2 210//2
f 119//3 118//3 189//3 190//3
f 118//3 117//3 188//3 189//3
f 168//2 172//2 219//2 218//2
f 117//3 116//3 187//3 188//3
f 151//2 153//2 210//2 209//2
f 137//2 139//2 203//2 202//2
f 116//3 115//3 186//3 187//3
f 115//3 114//3 185//3 186//3
f 114//3 113//3 184//3 185//3
f 149//2 151//2 209//2 208//2
f 165//2 167//2 217//2 216//2
f 112//3 111//3 182//3 183//3
f 167//4 168//4 218//4 217//4
f 133//3 132//3 200//3 201//3
f 161//2 163//2 215//2 214//2
f 172//4 222//4 253//4 219//4
f 147//2 149//2 208//2 207//2
f 111//2 133//2 201//2 182//2
f 110//1 132//1 133//1 111//1
f 159//2 161//2 214//2 213//2
f 145//2 147//2 207//2 206//2
f 128//3 127//3 198//3 199//3
f 127//3 126//3 197//3 198//3
f 157//2 159//2 213//2 212//2
f 126//3 125//3 196//3 197//3
f 143//2 145//2 206//2 205//2
f 125//3 124//3 195//3 196//3
f 124//3 123//3 194//3 195//3
f 130//1 134//1 135//1 131//1
f 90//1 111//1 112//1 91//1
f 92//1 113//1 114//1 93//1
f 93//1 114//1 115//1 94//1
f 94//1 115//1 116//1 95//1
f 95//1 116//1 117//1 96//1
f 96//1 117//1 118//1 97//1
f 97//1 118//1 119//1 98//1
f 98//1 119//1 120//1 99//1
f 99//1 120//1 121//1 100//1
f 100//1 121//1 122//1 101//1
f 101//1 122//1 123//1 102//1
f 102//1 123//1 124//1 103//1
f 103//1 124//1 125//1 104//1
f 104//1 125//1 126//1 105//1
f 105//1 126//1 127//1 106//1
f 106//1 127//1 128//1 107//1
f 108//1 129//1 130//1 109//1
f 222//1 178//1 238//1 223//1
f 223//1 238//1 239//1 224//1
f 224//1 239//1 240//1 225//1
f 225//1 240//1 241//1 226//1
f 226//1 241//1 242//1 227//1
f 227//1 242//1 243//1 228//1
f 228//1 243//1 244//1 229//1
f 229//1 244//1 245//1 230//1
f 230//1 245//1 246//1 231//1
f 231//1 246//1 247//1 232//1
f 232//1 247//1 248//1 233//1
f 233//1 248//1 249//1 234//1
f 234//1 249//1 250//1 235//1
f 235//1 250//1 251//1 236//1
f 236//1 251//1 252//1 237//1
f 236//4 237//4 220//4 267//4
f 235//4 236//4 267//4 266//4
f 234//4 235//4 266//4 265//4
f 233//4 234//4 265//4 264//4
f 232//4 233//4 264//4 263//4
f 231//4 232//4 263//4 262//4
f 230//4 231//4 262//4 261//4
f 229//4 230//4 261//4 260//4
f 228//4 229//4 260//4 259//4
f 227//4 228//4 259//4 258//4
f 226//4 227//4 258//4 257//4
f 225//4 226//4 257//4 256//4
f 224//4 225//4 256//4 255//4
f 223//4 224//4 255//4 254//4
f 222//4 223//4 254//4 253//4
