# Blender 4.2.9 LTS
# www.blender.org
o logo_696A6A
v -0.382353 0.044966 0.352941
v -0.382353 0.044966 -0.323529
v -0.352941 0.044966 0.352941
v -0.352941 0.044966 -0.294118
v -0.352941 0.044966 -0.323529
v -0.294118 0.044966 0.352941
v 0.294118 0.044966 0.352941
v 0.323529 0.044966 -0.323529
v 0.352941 0.044966 0.352941
v 0.352941 0.044966 0.323529
v 0.352941 0.044966 -0.323529
v 0.352941 0.044966 -0.352941
v 0.382353 0.044966 0.323529
v 0.382353 0.044966 -0.323529
v 0.382353 0.044966 -0.352941
v -0.382353 0.025640 0.352941
v -0.382353 0.025640 0.323529
v -0.382353 0.025640 -0.323529
v -0.382353 0.025640 -0.352941
v -0.352941 0.025640 0.382353
v -0.352941 0.025640 0.352941
v -0.352941 0.025640 -0.352941
v -0.323529 0.025640 0.382353
v 0.323529 0.025640 0.382353
v 0.352941 0.025640 0.382353
v 0.352941 0.025640 0.352941
v 0.352941 0.025640 -0.352941
v 0.382353 0.025640 0.352941
v 0.382353 0.025640 0.323529
v 0.382353 0.025640 -0.323529
v 0.382353 0.025640 -0.352941
v -0.382353 0.044966 0.323529
v -0.382353 0.044966 -0.352941
v -0.352941 0.044966 0.382353
v -0.352941 0.044966 0.323529
v -0.352941 0.044966 0.294118
v -0.352941 0.044966 -0.352941
v -0.323529 0.044966 0.382353
v -0.323529 0.044966 0.352941
v -0.323529 0.044966 0.323529
v -0.323529 0.044966 -0.323529
v 0.323529 0.044966 0.382353
v 0.323529 0.044966 0.352941
v 0.323529 0.044966 0.323529
v 0.352941 0.044966 0.382353
v 0.352941 0.044966 0.294118
v 0.352941 0.044966 -0.294118
v 0.382353 0.044966 0.352941
v -0.352941 0.058284 0.323529
v -0.352941 0.058284 0.294118
v -0.352941 0.058284 -0.294118
v -0.352941 0.058284 -0.323529
v -0.323529 0.058284 0.352941
v -0.323529 0.058284 0.323529
v -0.323529 0.058284 -0.323529
v -0.294118 0.058284 0.352941
v 0.294118 0.058284 0.352941
v 0.323529 0.058284 0.352941
v 0.323529 0.058284 0.323529
v 0.323529 0.058284 -0.323529
v 0.352941 0.058284 0.323529
v 0.352941 0.058284 0.294118
v 0.352941 0.058284 -0.294118
v 0.352941 0.058284 -0.323529
v -0.352941 0.070896 0.323529
v -0.352941 0.070896 0.294118
v -0.352941 0.070896 -0.294118
v -0.352941 0.070896 -0.323529
v -0.323529 0.070896 0.352941
v -0.323529 0.070896 0.323529
v -0.323529 0.070896 0.294118
v -0.323529 0.070896 -0.294118
v -0.323529 0.070896 -0.323529
v -0.294118 0.070896 0.352941
v -0.294118 0.070896 0.323529
v -0.294118 0.070896 0.294118
v 0.294118 0.070896 0.352941
v 0.294118 0.070896 0.323529
v 0.294118 0.070896 0.294118
v 0.323529 0.070896 0.352941
v 0.323529 0.070896 0.323529
v 0.323529 0.070896 0.294118
v 0.323529 0.070896 -0.294118
v 0.323529 0.070896 -0.323529
v 0.352941 0.070896 0.323529
v 0.352941 0.070896 0.294118
v 0.352941 0.070896 -0.294118
v 0.352941 0.070896 -0.323529
v -0.323529 0.063195 0.294118
v -0.294118 0.063195 0.323529
v -0.294118 0.063195 0.294118
v -0.294118 0.063195 -0.264706
v -0.294118 0.063195 -0.294118
v -0.264706 0.063195 -0.264706
v -0.264706 0.063195 -0.294118
v -0.264706 0.063195 -0.323529
v -0.235294 0.063195 -0.294118
v -0.235294 0.063195 -0.323529
v -0.205882 0.063195 -0.294118
v -0.205882 0.063195 -0.323529
v -0.176471 0.063195 -0.294118
v -0.176471 0.063195 -0.323529
v -0.147059 0.063195 -0.294118
v -0.147059 0.063195 -0.323529
v -0.117647 0.063195 -0.294118
v -0.117647 0.063195 -0.323529
v -0.088235 0.063195 -0.294118
v -0.088235 0.063195 -0.323529
v -0.058824 0.063195 -0.294118
v -0.058824 0.063195 -0.323529
v -0.029412 0.063195 -0.294118
v -0.029412 0.063195 -0.323529
v 0.000000 0.063195 -0.294118
v 0.000000 0.063195 -0.323529
v 0.029412 0.063195 -0.294118
v 0.029412 0.063195 -0.323529
v 0.058824 0.063195 -0.294118
v 0.058824 0.063195 -0.323529
v 0.088235 0.063195 -0.294118
v 0.088235 0.063195 -0.323529
v 0.117647 0.063195 -0.294118
v 0.117647 0.063195 -0.323529
v 0.147059 0.063195 -0.294118
v 0.147059 0.063195 -0.323529
v 0.176471 0.063195 -0.294118
v 0.176471 0.063195 -0.323529
v 0.205882 0.063195 -0.294118
v 0.205882 0.063195 -0.323529
v 0.235294 0.063195 -0.294118
v 0.235294 0.063195 -0.323529
v 0.264706 0.063195 -0.264706
v 0.264706 0.063195 -0.294118
v 0.264706 0.063195 -0.323529
v 0.294118 0.063195 0.323529
v 0.294118 0.063195 0.294118
v 0.294118 0.063195 -0.264706
v 0.294118 0.063195 -0.294118
v 0.323529 0.063195 0.294118
v -0.294118 0.057315 0.264706
v -0.294118 0.057315 0.235294
v -0.294118 0.057315 0.205882
v -0.294118 0.057315 0.176471
v -0.294118 0.057315 0.147059
v -0.294118 0.057315 0.117647
v -0.294118 0.057315 0.088235
v -0.294118 0.057315 0.058824
v -0.294118 0.057315 0.029412
v -0.294118 0.057315 0.000000
v -0.294118 0.057315 -0.029412
v -0.294118 0.057315 -0.058824
v -0.294118 0.057315 -0.088235
v -0.294118 0.057315 -0.117647
v -0.294118 0.057315 -0.147059
v -0.294118 0.057315 -0.176471
v -0.294118 0.057315 -0.205882
v -0.294118 0.057315 -0.235294
v -0.294118 0.057315 -0.264706
v -0.264706 0.057315 0.294118
v -0.264706 0.057315 0.264706
v -0.264706 0.057315 0.235294
v -0.264706 0.057315 0.205882
v -0.264706 0.057315 0.176471
v -0.264706 0.057315 0.147059
v -0.264706 0.057315 0.117647
v -0.264706 0.057315 0.088235
v -0.264706 0.057315 0.058824
v -0.264706 0.057315 0.029412
v -0.264706 0.057315 0.000000
v -0.264706 0.057315 -0.029412
v -0.264706 0.057315 -0.058824
v -0.264706 0.057315 -0.088235
v -0.264706 0.057315 -0.117647
v -0.264706 0.057315 -0.147059
v -0.264706 0.057315 -0.176471
v -0.264706 0.057315 -0.205882
v -0.264706 0.057315 -0.235294
v -0.264706 0.057315 -0.264706
v -0.264706 0.057315 -0.294118
v -0.235294 0.057315 0.294118
v -0.235294 0.057315 0.264706
v -0.235294 0.057315 0.235294
v -0.235294 0.057315 0.205882
v -0.235294 0.057315 0.176471
v -0.235294 0.057315 0.147059
v -0.235294 0.057315 0.117647
v -0.235294 0.057315 0.088235
v -0.235294 0.057315 0.058824
v -0.235294 0.057315 0.029412
v -0.235294 0.057315 0.000000
v -0.235294 0.057315 -0.029412
v -0.235294 0.057315 -0.058824
v -0.235294 0.057315 -0.088235
v -0.235294 0.057315 -0.117647
v -0.235294 0.057315 -0.147059
v -0.235294 0.057315 -0.176471
v -0.235294 0.057315 -0.205882
v -0.235294 0.057315 -0.235294
v -0.235294 0.057315 -0.264706
v -0.235294 0.057315 -0.294118
v -0.205882 0.057315 0.294118
v -0.205882 0.057315 0.264706
v -0.205882 0.057315 -0.029412
v -0.205882 0.057315 -0.058824
v -0.205882 0.057315 -0.088235
v -0.205882 0.057315 -0.117647
v -0.205882 0.057315 -0.147059
v -0.205882 0.057315 -0.176471
v -0.205882 0.057315 -0.205882
v -0.205882 0.057315 -0.235294
v -0.205882 0.057315 -0.264706
v -0.205882 0.057315 -0.294118
v -0.176471 0.057315 0.294118
v -0.176471 0.057315 0.264706
v -0.176471 0.057315 -0.029412
v -0.176471 0.057315 -0.058824
v -0.176471 0.057315 -0.264706
v -0.176471 0.057315 -0.294118
v -0.147059 0.057315 0.294118
v -0.147059 0.057315 0.264706
v -0.147059 0.057315 -0.029412
v -0.147059 0.057315 -0.058824
v -0.147059 0.057315 -0.264706
v -0.147059 0.057315 -0.294118
v -0.117647 0.057315 0.294118
v -0.117647 0.057315 0.264706
v -0.117647 0.057315 -0.029412
v -0.117647 0.057315 -0.058824
v -0.117647 0.057315 -0.264706
v -0.117647 0.057315 -0.294118
v -0.088235 0.057315 0.294118
v -0.088235 0.057315 0.264706
v -0.088235 0.057315 -0.029412
v -0.088235 0.057315 -0.058824
v -0.088235 0.057315 -0.264706
v -0.088235 0.057315 -0.294118
v -0.058824 0.057315 0.294118
v -0.058824 0.057315 0.264706
v -0.058824 0.057315 -0.029412
v -0.058824 0.057315 -0.058824
v -0.058824 0.057315 -0.264706
v -0.058824 0.057315 -0.294118
v -0.029412 0.057315 0.294118
v -0.029412 0.057315 0.264706
v -0.029412 0.057315 -0.029412
v -0.029412 0.057315 -0.058824
v -0.029412 0.057315 -0.264706
v -0.029412 0.057315 -0.294118
v -0.000000 0.057315 0.294118
v -0.000000 0.057315 0.264706
v 0.000000 0.057315 -0.029412
v 0.000000 0.057315 -0.058824
v 0.000000 0.057315 -0.264706
v 0.000000 0.057315 -0.294118
v 0.029412 0.057315 0.294118
v 0.029412 0.057315 0.264706
v 0.029412 0.057315 -0.029412
v 0.029412 0.057315 -0.058824
v 0.029412 0.057315 -0.264706
v 0.029412 0.057315 -0.294118
v 0.058824 0.057315 0.294118
v 0.058824 0.057315 0.264706
v 0.058824 0.057315 -0.029412
v 0.058824 0.057315 -0.058824
v 0.058824 0.057315 -0.264706
v 0.058824 0.057315 -0.294118
v 0.088235 0.057315 0.294118
v 0.088235 0.057315 0.264706
v 0.088235 0.057315 -0.029412
v 0.088235 0.057315 -0.058824
v 0.088235 0.057315 -0.264706
v 0.088235 0.057315 -0.294118
v 0.117647 0.057315 0.294118
v 0.117647 0.057315 0.264706
v 0.117647 0.057315 -0.029412
v 0.117647 0.057315 -0.058824
v 0.117647 0.057315 -0.264706
v 0.117647 0.057315 -0.294118
v 0.147059 0.057315 0.294118
v 0.147059 0.057315 0.264706
v 0.147059 0.057315 -0.029412
v 0.147059 0.057315 -0.058824
v 0.147059 0.057315 -0.264706
v 0.147059 0.057315 -0.294118
v 0.176471 0.057315 0.294118
v 0.176471 0.057315 0.264706
v 0.176471 0.057315 -0.029412
v 0.176471 0.057315 -0.058824
v 0.176471 0.057315 -0.264706
v 0.176471 0.057315 -0.294118
v 0.205882 0.057315 0.294118
v 0.205882 0.057315 0.264706
v 0.205882 0.057315 -0.029412
v 0.205882 0.057315 -0.058824
v 0.205882 0.057315 -0.088235
v 0.205882 0.057315 -0.117647
v 0.205882 0.057315 -0.147059
v 0.205882 0.057315 -0.176471
v 0.205882 0.057315 -0.205882
v 0.205882 0.057315 -0.235294
v 0.205882 0.057315 -0.264706
v 0.205882 0.057315 -0.294118
v 0.235294 0.057315 0.294118
v 0.235294 0.057315 0.264706
v 0.235294 0.057315 0.235294
v 0.235294 0.057315 0.205882
v 0.235294 0.057315 0.176471
v 0.235294 0.057315 0.147059
v 0.235294 0.057315 0.117647
v 0.235294 0.057315 0.088235
v 0.235294 0.057315 0.058824
v 0.235294 0.057315 0.029412
v 0.235294 0.057315 0.000000
v 0.235294 0.057315 -0.029412
v 0.235294 0.057315 -0.058824
v 0.235294 0.057315 -0.088235
v 0.235294 0.057315 -0.117647
v 0.235294 0.057315 -0.147059
v 0.235294 0.057315 -0.176471
v 0.235294 0.057315 -0.205882
v 0.235294 0.057315 -0.235294
v 0.235294 0.057315 -0.264706
v 0.235294 0.057315 -0.294118
v 0.264706 0.057315 0.294118
v 0.264706 0.057315 0.264706
v 0.264706 0.057315 0.235294
v 0.264706 0.057315 0.205882
v 0.264706 0.057315 0.176471
v 0.264706 0.057315 0.147059
v 0.264706 0.057315 0.117647
v 0.264706 0.057315 0.088235
v 0.264706 0.057315 0.058824
v 0.264706 0.057315 0.029412
v 0.264706 0.057315 0.000000
v 0.264706 0.057315 -0.029412
v 0.264706 0.057315 -0.058824
v 0.264706 0.057315 -0.088235
v 0.264706 0.057315 -0.117647
v 0.264706 0.057315 -0.147059
v 0.264706 0.057315 -0.176471
v 0.264706 0.057315 -0.205882
v 0.264706 0.057315 -0.235294
v 0.264706 0.057315 -0.264706
v 0.264706 0.057315 -0.294118
v 0.294118 0.057315 0.264706
v 0.294118 0.057315 0.235294
v 0.294118 0.057315 0.205882
v 0.294118 0.057315 0.176471
v 0.294118 0.057315 0.147059
v 0.294118 0.057315 0.117647
v 0.294118 0.057315 0.088235
v 0.294118 0.057315 0.058824
v 0.294118 0.057315 0.029412
v 0.294118 0.057315 0.000000
v 0.294118 0.057315 -0.029412
v 0.294118 0.057315 -0.058824
v 0.294118 0.057315 -0.088235
v 0.294118 0.057315 -0.117647
v 0.294118 0.057315 -0.147059
v 0.294118 0.057315 -0.176471
v 0.294118 0.057315 -0.205882
v 0.294118 0.057315 -0.235294
v 0.294118 0.057315 -0.264706
v -0.235294 0.048681 0.264706
v -0.235294 0.048681 0.235294
v -0.235294 0.048681 0.205882
v -0.235294 0.048681 0.176471
v -0.235294 0.048681 0.147059
v -0.235294 0.048681 0.117647
v -0.235294 0.048681 0.088235
v -0.235294 0.048681 0.058824
v -0.235294 0.048681 0.029412
v -0.235294 0.048681 0.000000
v -0.235294 0.048681 -0.029412
v -0.205882 0.048681 0.264706
v -0.205882 0.048681 -0.029412
v -0.176471 0.048681 0.264706
v -0.176471 0.048681 -0.029412
v -0.147059 0.048681 0.264706
v -0.147059 0.048681 -0.029412
v -0.117647 0.048681 0.264706
v -0.117647 0.048681 -0.029412
v -0.088235 0.048681 0.264706
v -0.088235 0.048681 -0.029412
v -0.058824 0.048681 0.264706
v -0.058824 0.048681 -0.029412
v -0.029412 0.048681 0.264706
v -0.029412 0.048681 -0.029412
v -0.000000 0.048681 0.264706
v 0.000000 0.048681 -0.029412
v 0.029412 0.048681 0.264706
v 0.029412 0.048681 -0.029412
v 0.058824 0.048681 0.264706
v 0.058824 0.048681 -0.029412
v 0.088235 0.048681 0.264706
v 0.088235 0.048681 -0.029412
v 0.117647 0.048681 0.264706
v 0.117647 0.048681 -0.029412
v 0.147059 0.048681 0.264706
v 0.147059 0.048681 -0.029412
v 0.176471 0.048681 0.264706
v 0.176471 0.048681 -0.029412
v 0.205882 0.048681 0.264706
v 0.205882 0.048681 -0.029412
v 0.235294 0.048681 0.264706
v 0.235294 0.048681 0.235294
v 0.235294 0.048681 0.205882
v 0.235294 0.048681 0.176471
v 0.235294 0.048681 0.147059
v 0.235294 0.048681 0.117647
v 0.235294 0.048681 0.088235
v 0.235294 0.048681 0.058824
v 0.235294 0.048681 0.029412
v 0.235294 0.048681 0.000000
v 0.235294 0.048681 -0.029412
v -0.235294 0.042602 0.264706
v -0.235294 0.042602 0.235294
v -0.235294 0.042602 0.205882
v -0.235294 0.042602 0.176471
v -0.235294 0.042602 0.147059
v -0.235294 0.042602 0.117647
v -0.235294 0.042602 0.088235
v -0.235294 0.042602 0.058824
v -0.235294 0.042602 0.029412
v -0.235294 0.042602 0.000000
v -0.205882 0.042602 0.264706
v -0.176471 0.042602 0.264706
v -0.147059 0.042602 0.264706
v -0.117647 0.042602 0.264706
v -0.088235 0.042602 0.264706
v -0.058824 0.042602 0.264706
v -0.029412 0.042602 0.264706
v -0.000000 0.042602 0.264706
v 0.029412 0.042602 0.264706
v 0.058824 0.042602 0.264706
v 0.088235 0.042602 0.264706
v 0.117647 0.042602 0.264706
v 0.147059 0.042602 0.264706
v 0.176471 0.042602 0.264706
v 0.205882 0.042602 0.264706
v 0.235294 0.042602 0.264706
v 0.235294 0.042602 0.235294
v 0.235294 0.042602 0.205882
v 0.235294 0.042602 0.176471
v 0.235294 0.042602 0.147059
v 0.235294 0.042602 0.117647
v 0.235294 0.042602 0.088235
v 0.235294 0.042602 0.058824
v 0.235294 0.042602 0.029412
v 0.235294 0.042602 0.000000
vn -0.0000 1.0000 -0.0000
vn -0.0000 -0.0000 -1.0000
vn -0.0000 -0.0000 1.0000
vn 1.0000 -0.0000 -0.0000
vn -1.0000 -0.0000 -0.0000
s 0
f 9//1 48//1 13//1 10//1
f 11//1 14//1 15//1 12//1
f 42//1 45//1 9//1 43//1
f 43//1 9//1 10//1 44//1
f 34//1 38//1 39//1 3//1
f 3//1 39//1 40//1 35//1
f 1//1 3//1 35//1 32//1
f 2//1 5//1 37//1 33//1
f 22//2 19//2 33//2 37//2
f 24//3 25//3 45//3 42//3
f 25//4 26//4 9//4 45//4
f 20//3 23//3 38//3 34//3
f 31//2 27//2 12//2 15//2
f 21//5 20//5 34//5 3//5
f 19//5 18//5 2//5 33//5
f 30//4 31//4 15//4 14//4
f 16//3 21//3 3//3 1//3
f 28//4 29//4 13//4 48//4
f 26//3 28//3 48//3 9//3
f 17//5 16//5 1//5 32//5
f 39//3 6//3 56//3 53//3
f 41//2 5//2 52//2 55//2
f 7//3 43//3 58//3 57//3
f 10//4 46//4 62//4 61//4
f 11//2 8//2 60//2 64//2
f 40//5 39//5 53//5 54//5
f 5//5 4//5 51//5 52//5
f 35//3 40//3 54//3 49//3
f 44//3 10//3 61//3 59//3
f 43//4 44//4 59//4 58//4
f 47//4 11//4 64//4 63//4
f 36//5 35//5 49//5 50//5
f 61//4 62//4 86//4 85//4
f 53//3 56//3 74//3 69//3
f 54//5 53//5 69//5 70//5
f 57//3 58//3 80//3 77//3
f 49//3 54//3 70//3 65//3
f 52//5 51//5 67//5 68//5
f 64//2 60//2 84//2 88//2
f 63//4 64//4 88//4 87//4
f 55//2 52//2 68//2 73//2
f 50//5 49//5 65//5 66//5
f 58//4 59//4 81//4 80//4
f 59//3 61//3 85//3 81//3
f 81//1 85//1 86//1 82//1
f 83//1 87//1 88//1 84//1
f 77//1 80//1 81//1 78//1
f 78//1 81//1 82//1 79//1
f 79//2 82//2 138//2 135//2
f 78//5 79//5 135//5 134//5
f 69//1 74//1 75//1 70//1
f 70//1 75//1 76//1 71//1
f 71//2 76//2 91//2 89//2
f 76//4 75//4 90//4 91//4
f 65//1 70//1 71//1 66//1
f 67//1 72//1 73//1 68//1
f 131//1 136//1 137//1 132//1
f 129//1 132//1 133//1 130//1
f 127//1 129//1 130//1 128//1
f 125//1 127//1 128//1 126//1
f 123//1 125//1 126//1 124//1
f 121//1 123//1 124//1 122//1
f 119//1 121//1 122//1 120//1
f 117//1 119//1 120//1 118//1
f 115//1 117//1 118//1 116//1
f 113//1 115//1 116//1 114//1
f 111//1 113//1 114//1 112//1
f 109//1 111//1 112//1 110//1
f 107//1 109//1 110//1 108//1
f 105//1 107//1 108//1 106//1
f 103//1 105//1 106//1 104//1
f 125//3 123//3 283//3 289//3
f 101//1 103//1 104//1 102//1
f 111//3 109//3 241//3 247//3
f 94//3 92//3 157//3 177//3
f 123//3 121//3 277//3 283//3
f 109//3 107//3 235//3 241//3
f 99//1 101//1 102//1 100//1
f 121//3 119//3 271//3 277//3
f 107//3 105//3 229//3 235//3
f 119//3 117//3 265//3 271//3
f 105//3 103//3 223//3 229//3
f 97//1 99//1 100//1 98//1
f 117//3 115//3 259//3 265//3
f 103//3 101//3 217//3 223//3
f 136//3 131//3 342//3 362//3
f 101//3 99//3 211//3 217//3
f 132//3 129//3 322//3 343//3
f 95//1 97//1 98//1 96//1
f 99//3 97//3 199//3 211//3
f 129//3 127//3 301//3 322//3
f 115//3 113//3 253//3 259//3
f 131//5 132//5 343//5 342//5
f 97//3 95//3 178//3 199//3
f 127//3 125//3 289//3 301//3
f 113//3 111//3 247//3 253//3
f 95//4 94//4 177//4 178//4
f 92//1 94//1 95//1 93//1
f 324//1 344//1 345//1 325//1
f 325//1 345//1 346//1 326//1
f 326//1 346//1 347//1 327//1
f 327//1 347//1 348//1 328//1
f 328//1 348//1 349//1 329//1
f 329//1 349//1 350//1 330//1
f 330//1 350//1 351//1 331//1
f 331//1 351//1 352//1 332//1
f 332//1 352//1 353//1 333//1
f 333//1 353//1 354//1 334//1
f 334//1 354//1 355//1 335//1
f 335//1 355//1 356//1 336//1
f 336//1 356//1 357//1 337//1
f 337//1 357//1 358//1 338//1
f 338//1 358//1 359//1 339//1
f 339//1 359//1 360//1 340//1
f 340//1 360//1 361//1 341//1
f 341//1 361//1 362//1 342//1
f 302//1 323//1 324//1 303//1
f 303//1 324//1 325//1 304//1
f 304//1 325//1 326//1 305//1
f 305//1 326//1 327//1 306//1
f 306//1 327//1 328//1 307//1
f 307//1 328//1 329//1 308//1
f 308//1 329//1 330//1 309//1
f 309//1 330//1 331//1 310//1
f 310//1 331//1 332//1 311//1
f 311//1 332//1 333//1 312//1
f 312//1 333//1 334//1 313//1
f 313//1 334//1 335//1 314//1
f 314//1 335//1 336//1 315//1
f 315//1 336//1 337//1 316//1
f 316//1 337//1 338//1 317//1
f 317//1 338//1 339//1 318//1
f 318//1 339//1 340//1 319//1
f 319//1 340//1 341//1 320//1
f 320//1 341//1 342//1 321//1
f 321//1 342//1 343//1 322//1
f 290//1 302//1 303//1 291//1
f 292//1 313//1 314//1 293//1
f 293//1 314//1 315//1 294//1
f 294//1 315//1 316//1 295//1
f 295//1 316//1 317//1 296//1
f 296//1 317//1 318//1 297//1
f 297//1 318//1 319//1 298//1
f 298//1 319//1 320//1 299//1
f 299//1 320//1 321//1 300//1
f 300//1 321//1 322//1 301//1
f 284//1 290//1 291//1 285//1
f 286//1 292//1 293//1 287//1
f 288//1 300//1 301//1 289//1
f 278//1 284//1 285//1 279//1
f 280//1 286//1 287//1 281//1
f 282//1 288//1 289//1 283//1
f 272//1 278//1 279//1 273//1
f 274//1 280//1 281//1 275//1
f 276//1 282//1 283//1 277//1
f 266//1 272//1 273//1 267//1
f 268//1 274//1 275//1 269//1
f 270//1 276//1 277//1 271//1
f 260//1 266//1 267//1 261//1
f 262//1 268//1 269//1 263//1
f 264//1 270//1 271//1 265//1
f 254//1 260//1 261//1 255//1
f 256//1 262//1 263//1 257//1
f 258//1 264//1 265//1 259//1
f 248//1 254//1 255//1 249//1
f 250//1 256//1 257//1 251//1
f 252//1 258//1 259//1 253//1
f 242//1 248//1 249//1 243//1
f 244//1 250//1 251//1 245//1
f 246//1 252//1 253//1 247//1
f 236//1 242//1 243//1 237//1
f 238//1 244//1 245//1 239//1
f 240//1 246//1 247//1 241//1
f 230//1 236//1 237//1 231//1
f 305//5 306//5 407//5 406//5
f 188//4 187//4 370//4 371//4
f 232//1 238//1 239//1 233//1
f 234//1 240//1 241//1 235//1
f 224//1 230//1 231//1 225//1
f 304//5 305//5 406//5 405//5
f 187//4 186//4 369//4 370//4
f 303//5 304//5 405//5 404//5
f 213//2 219//2 378//2 376//2
f 243//2 249//2 388//2 386//2
f 273//2 279//2 398//2 396//2
f 202//3 190//3 373//3 375//3
f 238//3 232//3 383//3 385//3
f 186//4 185//4 368//4 369//4
f 268//3 262//3 393//3 395//3
f 226//1 232//1 233//1 227//1
f 228//1 234//1 235//1 229//1
f 218//1 224//1 225//1 219//1
f 313//3 292//3 403//3 414//3
f 185//4 184//4 367//4 368//4
f 184//4 183//4 366//4 367//4
f 183//4 182//4 365//4 366//4
f 182//4 181//4 364//4 365//4
f 201//2 213//2 376//2 374//2
f 237//2 243//2 386//2 384//2
f 267//2 273//2 396//2 394//2
f 181//4 180//4 363//4 364//4
f 232//3 226//3 381//3 383//3
f 220//1 226//1 227//1 221//1
f 222//1 228//1 229//1 223//1
f 212//1 218//1 219//1 213//1
f 262//3 256//3 391//3 393//3
f 292//3 286//3 401//3 403//3
f 180//2 201//2 374//2 363//2
f 231//2 237//2 384//2 382//2
f 261//2 267//2 394//2 392//2
f 291//2 303//2 404//2 402//2
f 226//3 220//3 379//3 381//3
f 256//3 250//3 389//3 391//3
f 286//3 280//3 399//3 401//3
f 225//2 231//2 382//2 380//2
f 214//1 220//1 221//1 215//1
f 216//1 222//1 223//1 217//1
f 200//1 212//1 213//1 201//1
f 255//2 261//2 392//2 390//2
f 220//3 214//3 377//3 379//3
f 285//2 291//2 402//2 400//2
f 250//3 244//3 387//3 389//3
f 280//3 274//3 397//3 399//3
f 312//5 313//5 414//5 413//5
f 311//5 312//5 413//5 412//5
f 310//5 311//5 412//5 411//5
f 309//5 310//5 411//5 410//5
f 219//2 225//2 380//2 378//2
f 202//1 214//1 215//1 203//1
f 210//1 216//1 217//1 211//1
f 179//1 200//1 201//1 180//1
f 249//2 255//2 390//2 388//2
f 308//5 309//5 410//5 409//5
f 279//2 285//2 400//2 398//2
f 214//3 202//3 375//3 377//3
f 244//3 238//3 385//3 387//3
f 274//3 268//3 395//3 397//3
f 307//5 308//5 409//5 408//5
f 190//4 189//4 372//4 373//4
f 306//5 307//5 408//5 407//5
f 189//4 188//4 371//4 372//4
f 190//1 202//1 203//1 191//1
f 191//1 203//1 204//1 192//1
f 192//1 204//1 205//1 193//1
f 193//1 205//1 206//1 194//1
f 194//1 206//1 207//1 195//1
f 195//1 207//1 208//1 196//1
f 196//1 208//1 209//1 197//1
f 197//1 209//1 210//1 198//1
f 198//1 210//1 211//1 199//1
f 158//1 179//1 180//1 159//1
f 159//1 180//1 181//1 160//1
f 160//1 181//1 182//1 161//1
f 161//1 182//1 183//1 162//1
f 162//1 183//1 184//1 163//1
f 163//1 184//1 185//1 164//1
f 164//1 185//1 186//1 165//1
f 165//1 186//1 187//1 166//1
f 166//1 187//1 188//1 167//1
f 167//1 188//1 189//1 168//1
f 168//1 189//1 190//1 169//1
f 169//1 190//1 191//1 170//1
f 170//1 191//1 192//1 171//1
f 171//1 192//1 193//1 172//1
f 172//1 193//1 194//1 173//1
f 173//1 194//1 195//1 174//1
f 174//1 195//1 196//1 175//1
f 175//1 196//1 197//1 176//1
f 176//1 197//1 198//1 177//1
f 177//1 198//1 199//1 178//1
f 139//1 159//1 160//1 140//1
f 140//1 160//1 161//1 141//1
f 141//1 161//1 162//1 142//1
f 142//1 162//1 163//1 143//1
f 143//1 163//1 164//1 144//1
f 144//1 164//1 165//1 145//1
f 145//1 165//1 166//1 146//1
f 146//1 166//1 167//1 147//1
f 147//1 167//1 168//1 148//1
f 148//1 168//1 169//1 149//1
f 149//1 169//1 170//1 150//1
f 150//1 170//1 171//1 151//1
f 151//1 171//1 172//1 152//1
f 152//1 172//1 173//1 153//1
f 153//1 173//1 174//1 154//1
f 154//1 174//1 175//1 155//1
f 155//1 175//1 176//1 156//1
f 156//1 176//1 177//1 157//1
f 378//2 380//2 428//2 427//2
f 388//2 390//2 433//2 432//2
f 398//2 400//2 438//2 437//2
f 380//2 382//2 429//2 428//2
f 390//2 392//2 434//2 433//2
f 400//2 402//2 439//2 438//2
f 363//2 374//2 425//2 415//2
f 396//2 398//2 437//2 436//2
f 364//4 363//4 415//4 416//4
f 386//2 388//2 432//2 431//2
f 366//4 365//4 417//4 418//4
f 368//4 367//4 419//4 420//4
f 376//2 378//2 427//2 426//2
f 404//5 405//5 441//5 440//5
f 370//4 369//4 421//4 422//4
f 406//5 407//5 443//5 442//5
f 372//4 371//4 423//4 424//4
f 394//2 396//2 436//2 435//2
f 408//5 409//5 445//5 444//5
f 410//5 411//5 447//5 446//5
f 384//2 386//2 431//2 430//2
f 412//5 413//5 449//5 448//5
f 374//2 376//2 426//2 425//2
f 402//2 404//2 440//2 439//2
f 392//2 394//2 435//2 434//2
f 382//2 384//2 430//2 429//2
