# Blender 4.2.9 LTS
# www.blender.org
o logo_000000
v -0.470588 0.000000 0.294118
v -0.470588 0.000000 0.264706
v -0.470588 0.000000 0.235294
v -0.470588 0.000000 0.205882
v -0.470588 0.000000 0.176471
v -0.470588 0.000000 0.147059
v -0.470588 0.000000 0.117647
v -0.470588 0.000000 0.088235
v -0.470588 0.000000 0.058824
v -0.470588 0.000000 0.029412
v -0.470588 0.000000 0.000000
v -0.470588 0.000000 -0.029412
v -0.470588 0.000000 -0.058824
v -0.470588 0.000000 -0.088235
v -0.470588 0.000000 -0.117647
v -0.470588 0.000000 -0.147059
v -0.470588 0.000000 -0.176471
v -0.470588 0.000000 -0.205882
v -0.470588 0.000000 -0.235294
v -0.470588 0.000000 -0.264706
v -0.470588 0.000000 -0.294118
v -0.441176 0.000000 0.294118
v -0.441176 0.000000 -0.294118
v -0.411765 0.000000 0.382353
v -0.411765 0.000000 0.352941
v -0.411765 0.000000 0.323529
v -0.411765 0.000000 0.294118
v -0.411765 0.000000 -0.294118
v -0.411765 0.000000 -0.323529
v -0.411765 0.000000 -0.352941
v -0.411765 0.000000 -0.382353
v -0.382353 0.000000 0.411765
v -0.382353 0.000000 0.382353
v -0.382353 0.000000 -0.382353
v -0.382353 0.000000 -0.411765
v -0.352941 0.000000 0.411765
v -0.352941 0.000000 -0.411765
v -0.323529 0.000000 0.411765
v -0.323529 0.000000 -0.411765
v -0.294118 0.000000 0.411765
v -0.294118 0.000000 -0.411765
v -0.264706 0.000000 0.411765
v -0.264706 0.000000 -0.411765
v -0.235294 0.000000 0.411765
v -0.235294 0.000000 -0.411765
v -0.205882 0.000000 0.411765
v -0.205882 0.000000 -0.411765
v -0.176471 0.000000 0.411765
v -0.176471 0.000000 -0.411765
v -0.147059 0.000000 0.411765
v -0.147059 0.000000 -0.411765
v -0.117647 0.000000 0.411765
v -0.117647 0.000000 -0.411765
v -0.088235 0.000000 0.411765
v -0.088235 0.000000 -0.411765
v -0.058824 0.000000 0.411765
v -0.058824 0.000000 -0.411765
v -0.029412 0.000000 0.411765
v -0.029412 0.000000 -0.411765
v -0.000000 0.000000 0.411765
v 0.000000 0.000000 -0.411765
v 0.029412 0.000000 0.411765
v 0.029412 0.000000 -0.411765
v 0.058824 0.000000 0.411765
v 0.058824 0.000000 -0.411765
v 0.088235 0.000000 0.411765
v 0.088235 0.000000 -0.411765
v 0.117647 0.000000 0.411765
v 0.117647 0.000000 -0.411765
v 0.147059 0.000000 0.411765
v 0.147059 0.000000 -0.411765
v 0.176471 0.000000 0.411765
v 0.176471 0.000000 -0.411765
v 0.205882 0.000000 0.411765
v 0.205882 0.000000 -0.411765
v 0.235294 0.000000 0.411765
v 0.235294 0.000000 -0.411765
v 0.264706 0.000000 0.411765
v 0.264706 0.000000 -0.411765
v 0.294118 0.000000 0.411765
v 0.294118 0.000000 -0.411765
v 0.323529 0.000000 0.411765
v 0.323529 0.000000 -0.411765
v 0.352941 0.000000 0.411765
v 0.352941 0.000000 -0.411765
v 0.382353 0.000000 0.411765
v 0.382353 0.000000 0.382353
v 0.382353 0.000000 -0.382353
v 0.382353 0.000000 -0.411765
v 0.411765 0.000000 0.382353
v 0.411765 0.000000 0.352941
v 0.411765 0.000000 0.323529
v 0.411765 0.000000 0.294118
v 0.411765 0.000000 -0.294118
v 0.411765 0.000000 -0.323529
v 0.411765 0.000000 -0.352941
v 0.411765 0.000000 -0.382353
v 0.441176 0.000000 0.294118
v 0.441176 0.000000 -0.294118
v 0.470588 0.000000 0.294118
v 0.470588 0.000000 0.264706
v 0.470588 0.000000 0.235294
v 0.470588 0.000000 0.205882
v 0.470588 0.000000 0.176471
v 0.470588 0.000000 0.147059
v 0.470588 0.000000 0.117647
v 0.470588 0.000000 0.088235
v 0.470588 0.000000 0.058824
v 0.470588 0.000000 0.029412
v 0.470588 0.000000 0.000000
v 0.470588 0.000000 -0.029412
v 0.470588 0.000000 -0.058824
v 0.470588 0.000000 -0.088235
v 0.470588 0.000000 -0.117647
v 0.470588 0.000000 -0.147059
v 0.470588 0.000000 -0.176471
v 0.470588 0.000000 -0.205882
v 0.470588 0.000000 -0.235294
v 0.470588 0.000000 -0.264706
v 0.470588 0.000000 -0.294118
v -0.470588 0.025640 0.294118
v -0.470588 0.025640 0.264706
v -0.470588 0.025640 0.235294
v -0.470588 0.025640 0.205882
v -0.470588 0.025640 0.176471
v -0.470588 0.025640 0.147059
v -0.470588 0.025640 0.117647
v -0.470588 0.025640 0.088235
v -0.470588 0.025640 0.058824
v -0.470588 0.025640 0.029412
v -0.470588 0.025640 0.000000
v -0.470588 0.025640 -0.029412
v -0.470588 0.025640 -0.058824
v -0.470588 0.025640 -0.088235
v -0.470588 0.025640 -0.117647
v -0.470588 0.025640 -0.147059
v -0.470588 0.025640 -0.176471
v -0.470588 0.025640 -0.205882
v -0.470588 0.025640 -0.235294
v -0.470588 0.025640 -0.264706
v -0.470588 0.025640 -0.294118
v -0.441176 0.025640 0.294118
v -0.441176 0.025640 0.264706
v -0.441176 0.025640 0.235294
v -0.441176 0.025640 0.205882
v -0.441176 0.025640 0.176471
v -0.441176 0.025640 0.147059
v -0.441176 0.025640 0.117647
v -0.441176 0.025640 0.088235
v -0.441176 0.025640 0.058824
v -0.441176 0.025640 0.029412
v -0.441176 0.025640 0.000000
v -0.441176 0.025640 -0.029412
v -0.441176 0.025640 -0.058824
v -0.441176 0.025640 -0.088235
v -0.441176 0.025640 -0.117647
v -0.441176 0.025640 -0.147059
v -0.441176 0.025640 -0.176471
v -0.441176 0.025640 -0.205882
v -0.441176 0.025640 -0.235294
v -0.441176 0.025640 -0.264706
v -0.441176 0.025640 -0.294118
v -0.411765 0.025640 0.382353
v -0.411765 0.025640 0.352941
v -0.411765 0.025640 0.323529
v -0.411765 0.025640 0.294118
v -0.411765 0.025640 0.264706
v -0.411765 0.025640 0.176471
v -0.411765 0.025640 0.147059
v -0.411765 0.025640 0.117647
v -0.411765 0.025640 0.029412
v -0.411765 0.025640 0.000000
v -0.411765 0.025640 -0.029412
v -0.411765 0.025640 -0.117647
v -0.411765 0.025640 -0.147059
v -0.411765 0.025640 -0.176471
v -0.411765 0.025640 -0.264706
v -0.411765 0.025640 -0.294118
v -0.411765 0.025640 -0.323529
v -0.411765 0.025640 -0.352941
v -0.411765 0.025640 -0.382353
v -0.382353 0.025640 0.411765
v -0.382353 0.025640 0.382353
v -0.382353 0.025640 0.352941
v -0.382353 0.025640 0.323529
v -0.382353 0.025640 0.294118
v -0.382353 0.025640 0.264706
v -0.382353 0.025640 0.176471
v -0.382353 0.025640 0.147059
v -0.382353 0.025640 0.117647
v -0.382353 0.025640 0.029412
v -0.382353 0.025640 0.000000
v -0.382353 0.025640 -0.029412
v -0.382353 0.025640 -0.117647
v -0.382353 0.025640 -0.147059
v -0.382353 0.025640 -0.176471
v -0.382353 0.025640 -0.264706
v -0.382353 0.025640 -0.294118
v -0.382353 0.025640 -0.323529
v -0.382353 0.025640 -0.352941
v -0.382353 0.025640 -0.382353
v -0.382353 0.025640 -0.411765
v -0.352941 0.025640 0.411765
v -0.352941 0.025640 0.382353
v -0.352941 0.025640 0.352941
v -0.352941 0.025640 -0.352941
v -0.352941 0.025640 -0.382353
v -0.352941 0.025640 -0.411765
v -0.323529 0.025640 0.411765
v -0.323529 0.025640 0.382353
v -0.323529 0.025640 -0.382353
v -0.323529 0.025640 -0.411765
v -0.294118 0.025640 0.411765
v -0.294118 0.025640 0.382353
v -0.294118 0.025640 -0.382353
v -0.294118 0.025640 -0.411765
v -0.264706 0.025640 0.411765
v -0.264706 0.025640 0.382353
v -0.264706 0.025640 -0.382353
v -0.264706 0.025640 -0.411765
v -0.235294 0.025640 0.411765
v -0.235294 0.025640 0.382353
v -0.235294 0.025640 -0.382353
v -0.235294 0.025640 -0.411765
v -0.205882 0.025640 0.411765
v -0.205882 0.025640 0.382353
v -0.205882 0.025640 -0.382353
v -0.205882 0.025640 -0.411765
v -0.176471 0.025640 0.411765
v -0.176471 0.025640 0.382353
v -0.176471 0.025640 -0.382353
v -0.176471 0.025640 -0.411765
v -0.147059 0.025640 0.411765
v -0.147059 0.025640 0.382353
v -0.147059 0.025640 -0.382353
v -0.147059 0.025640 -0.411765
v -0.117647 0.025640 0.411765
v -0.117647 0.025640 0.382353
v -0.117647 0.025640 -0.382353
v -0.117647 0.025640 -0.411765
v -0.088235 0.025640 0.411765
v -0.088235 0.025640 0.382353
v -0.088235 0.025640 -0.382353
v -0.088235 0.025640 -0.411765
v -0.058824 0.025640 0.411765
v -0.058824 0.025640 0.382353
v -0.058824 0.025640 -0.382353
v -0.058824 0.025640 -0.411765
v -0.029412 0.025640 0.411765
v -0.029412 0.025640 0.382353
v -0.029412 0.025640 -0.382353
v -0.029412 0.025640 -0.411765
v -0.000000 0.025640 0.411765
v -0.000000 0.025640 0.382353
v 0.000000 0.025640 -0.382353
v 0.000000 0.025640 -0.411765
v 0.029412 0.025640 0.411765
v 0.029412 0.025640 0.382353
v 0.029412 0.025640 -0.382353
v 0.029412 0.025640 -0.411765
v 0.058824 0.025640 0.411765
v 0.058824 0.025640 0.382353
v 0.058824 0.025640 -0.382353
v 0.058824 0.025640 -0.411765
v 0.088235 0.025640 0.411765
v 0.088235 0.025640 0.382353
v 0.088235 0.025640 -0.382353
v 0.088235 0.025640 -0.411765
v 0.117647 0.025640 0.411765
v 0.117647 0.025640 0.382353
v 0.117647 0.025640 -0.382353
v 0.117647 0.025640 -0.411765
v 0.147059 0.025640 0.411765
v 0.147059 0.025640 0.382353
v 0.147059 0.025640 -0.382353
v 0.147059 0.025640 -0.411765
v 0.176471 0.025640 0.411765
v 0.176471 0.025640 0.382353
v 0.176471 0.025640 -0.382353
v 0.176471 0.025640 -0.411765
v 0.205882 0.025640 0.411765
v 0.205882 0.025640 0.382353
v 0.205882 0.025640 -0.382353
v 0.205882 0.025640 -0.411765
v 0.235294 0.025640 0.411765
v 0.235294 0.025640 0.382353
v 0.235294 0.025640 -0.382353
v 0.235294 0.025640 -0.411765
v 0.264706 0.025640 0.411765
v 0.264706 0.025640 0.382353
v 0.264706 0.025640 -0.382353
v 0.264706 0.025640 -0.411765
v 0.294118 0.025640 0.411765
v 0.294118 0.025640 0.382353
v 0.294118 0.025640 -0.382353
v 0.294118 0.025640 -0.411765
v 0.323529 0.025640 0.411765
v 0.323529 0.025640 0.382353
v 0.323529 0.025640 -0.382353
v 0.323529 0.025640 -0.411765
v 0.352941 0.025640 0.411765
v 0.352941 0.025640 0.382353
v 0.352941 0.025640 0.352941
v 0.352941 0.025640 -0.352941
v 0.352941 0.025640 -0.382353
v 0.352941 0.025640 -0.411765
v 0.382353 0.025640 0.411765
v 0.382353 0.025640 0.382353
v 0.382353 0.025640 0.352941
v 0.382353 0.025640 0.323529
v 0.382353 0.025640 0.294118
v 0.382353 0.025640 0.264706
v 0.382353 0.025640 0.176471
v 0.382353 0.025640 0.147059
v 0.382353 0.025640 0.117647
v 0.382353 0.025640 0.029412
v 0.382353 0.025640 0.000000
v 0.382353 0.025640 -0.029412
v 0.382353 0.025640 -0.117647
v 0.382353 0.025640 -0.147059
v 0.382353 0.025640 -0.176471
v 0.382353 0.025640 -0.264706
v 0.382353 0.025640 -0.294118
v 0.382353 0.025640 -0.323529
v 0.382353 0.025640 -0.352941
v 0.382353 0.025640 -0.382353
v 0.382353 0.025640 -0.411765
v 0.411765 0.025640 0.382353
v 0.411765 0.025640 0.352941
v 0.411765 0.025640 0.323529
v 0.411765 0.025640 0.294118
v 0.411765 0.025640 0.264706
v 0.411765 0.025640 0.176471
v 0.411765 0.025640 0.147059
v 0.411765 0.025640 0.117647
v 0.411765 0.025640 0.029412
v 0.411765 0.025640 0.000000
v 0.411765 0.025640 -0.029412
v 0.411765 0.025640 -0.117647
v 0.411765 0.025640 -0.147059
v 0.411765 0.025640 -0.176471
v 0.411765 0.025640 -0.264706
v 0.411765 0.025640 -0.294118
v 0.411765 0.025640 -0.323529
v 0.411765 0.025640 -0.352941
v 0.411765 0.025640 -0.382353
v 0.441176 0.025640 0.294118
v 0.441176 0.025640 0.264706
v 0.441176 0.025640 0.235294
v 0.441176 0.025640 0.205882
v 0.441176 0.025640 0.176471
v 0.441176 0.025640 0.147059
v 0.441176 0.025640 0.117647
v 0.441176 0.025640 0.088235
v 0.441176 0.025640 0.058824
v 0.441176 0.025640 0.029412
v 0.441176 0.025640 0.000000
v 0.441176 0.025640 -0.029412
v 0.441176 0.025640 -0.058824
v 0.441176 0.025640 -0.088235
v 0.441176 0.025640 -0.117647
v 0.441176 0.025640 -0.147059
v 0.441176 0.025640 -0.176471
v 0.441176 0.025640 -0.205882
v 0.441176 0.025640 -0.235294
v 0.441176 0.025640 -0.264706
v 0.441176 0.025640 -0.294118
v 0.470588 0.025640 0.294118
v 0.470588 0.025640 0.264706
v 0.470588 0.025640 0.235294
v 0.470588 0.025640 0.205882
v 0.470588 0.025640 0.176471
v 0.470588 0.025640 0.147059
v 0.470588 0.025640 0.117647
v 0.470588 0.025640 0.088235
v 0.470588 0.025640 0.058824
v 0.470588 0.025640 0.029412
v 0.470588 0.025640 0.000000
v 0.470588 0.025640 -0.029412
v 0.470588 0.025640 -0.058824
v 0.470588 0.025640 -0.088235
v 0.470588 0.025640 -0.117647
v 0.470588 0.025640 -0.147059
v 0.470588 0.025640 -0.176471
v 0.470588 0.025640 -0.205882
v 0.470588 0.025640 -0.235294
v 0.470588 0.025640 -0.264706
v 0.470588 0.025640 -0.294118
vn 1.0000 -0.0000 -0.0000
vn -1.0000 -0.0000 -0.0000
vn -0.0000 -0.0000 1.0000
vn -0.0000 -0.0000 -1.0000
vn -0.0000 1.0000 -0.0000
s 0
f 108//1 109//1 377//1 376//1
f 30//2 29//2 179//2 180//2
f 46//3 48//3 229//3 225//3
f 96//1 97//1 346//1 345//1
f 107//1 108//1 376//1 375//1
f 29//2 28//2 178//2 179//2
f 57//4 55//4 244//4 248//4
f 95//1 96//1 345//1 344//1
f 106//1 107//1 375//1 374//1
f 82//3 84//3 301//3 297//3
f 94//1 95//1 344//1 343//1
f 105//1 106//1 374//1 373//1
f 104//1 105//1 373//1 372//1
f 40//3 42//3 217//3 213//3
f 103//1 104//1 372//1 371//1
f 51//4 49//4 232//4 236//4
f 76//3 78//3 289//3 285//3
f 102//1 103//1 371//1 370//1
f 101//1 102//1 370//1 369//1
f 89//4 85//4 306//4 327//4
f 62//3 64//3 261//3 257//3
f 120//4 99//4 367//4 388//4
f 1//3 22//3 142//3 121//3
f 100//1 101//1 369//1 368//1
f 32//3 36//3 203//3 182//3
f 86//1 87//1 308//1 307//1
f 45//4 43//4 220//4 224//4
f 70//3 72//3 277//3 273//3
f 81//4 79//4 292//4 296//4
f 56//3 58//3 249//3 245//3
f 67//4 65//4 264//4 268//4
f 39//4 37//4 208//4 212//4
f 75//4 73//4 280//4 284//4
f 50//3 52//3 237//3 233//3
f 87//3 90//3 328//3 308//3
f 61//4 59//4 252//4 256//4
f 35//2 34//2 201//2 202//2
f 21//2 20//2 140//2 141//2
f 20//2 19//2 139//2 140//2
f 44//3 46//3 225//3 221//3
f 19//2 18//2 138//2 139//2
f 55//4 53//4 240//4 244//4
f 18//2 17//2 137//2 138//2
f 80//3 82//3 297//3 293//3
f 28//4 23//4 162//4 178//4
f 17//2 16//2 136//2 137//2
f 16//2 15//2 135//2 136//2
f 66//3 68//3 269//3 265//3
f 27//2 26//2 165//2 166//2
f 38//3 40//3 213//3 209//3
f 15//2 14//2 134//2 135//2
f 26//2 25//2 164//2 165//2
f 92//1 93//1 331//1 330//1
f 49//4 47//4 228//4 232//4
f 14//2 13//2 133//2 134//2
f 25//2 24//2 163//2 164//2
f 74//3 76//3 285//3 281//3
f 91//1 92//1 330//1 329//1
f 13//2 12//2 132//2 133//2
f 24//3 33//3 183//3 163//3
f 85//4 83//4 300//4 306//4
f 90//1 91//1 329//1 328//1
f 60//3 62//3 257//3 253//3
f 99//4 94//4 343//4 367//4
f 12//2 11//2 131//2 132//2
f 11//2 10//2 130//2 131//2
f 71//4 69//4 272//4 276//4
f 98//3 100//3 368//3 347//3
f 43//4 41//4 216//4 220//4
f 10//2 9//2 129//2 130//2
f 68//3 70//3 273//3 269//3
f 9//2 8//2 128//2 129//2
f 79//4 77//4 288//4 292//4
f 54//3 56//3 245//3 241//3
f 8//2 7//2 127//2 128//2
f 65//4 63//4 260//4 264//4
f 7//2 6//2 126//2 127//2
f 37//4 35//4 202//4 208//4
f 6//2 5//2 125//2 126//2
f 88//1 89//1 327//1 326//1
f 5//2 4//2 124//2 125//2
f 73//4 71//4 276//4 280//4
f 48//3 50//3 233//3 229//3
f 4//2 3//2 123//2 124//2
f 59//4 57//4 248//4 252//4
f 3//2 2//2 122//2 123//2
f 84//3 86//3 307//3 301//3
f 2//2 1//2 121//2 122//2
f 42//3 44//3 221//3 217//3
f 53//4 51//4 236//4 240//4
f 78//3 80//3 293//3 289//3
f 23//4 21//4 141//4 162//4
f 64//3 66//3 265//3 261//3
f 119//1 120//1 388//1 387//1
f 22//3 27//3 166//3 142//3
f 36//3 38//3 209//3 203//3
f 97//4 88//4 326//4 346//4
f 118//1 119//1 387//1 386//1
f 47//4 45//4 224//4 228//4
f 117//1 118//1 386//1 385//1
f 72//3 74//3 281//3 277//3
f 116//1 117//1 385//1 384//1
f 33//2 32//2 182//2 183//2
f 83//4 81//4 296//4 300//4
f 58//3 60//3 253//3 249//3
f 115//1 116//1 384//1 383//1
f 114//1 115//1 383//1 382//1
f 69//4 67//4 268//4 272//4
f 93//3 98//3 347//3 331//3
f 41//4 39//4 212//4 216//4
f 113//1 114//1 382//1 381//1
f 112//1 113//1 381//1 380//1
f 77//4 75//4 284//4 288//4
f 52//3 54//3 241//3 237//3
f 111//1 112//1 380//1 379//1
f 63//4 61//4 256//4 260//4
f 110//1 111//1 379//1 378//1
f 109//1 110//1 378//1 377//1
f 31//2 30//2 180//2 181//2
f 34//4 31//4 181//4 201//4
f 347//5 368//5 369//5 348//5
f 348//5 369//5 370//5 349//5
f 349//5 370//5 371//5 350//5
f 350//5 371//5 372//5 351//5
f 351//5 372//5 373//5 352//5
f 352//5 373//5 374//5 353//5
f 353//5 374//5 375//5 354//5
f 354//5 375//5 376//5 355//5
f 355//5 376//5 377//5 356//5
f 356//5 377//5 378//5 357//5
f 357//5 378//5 379//5 358//5
f 358//5 379//5 380//5 359//5
f 359//5 380//5 381//5 360//5
f 360//5 381//5 382//5 361//5
f 361//5 382//5 383//5 362//5
f 362//5 383//5 384//5 363//5
f 363//5 384//5 385//5 364//5
f 364//5 385//5 386//5 365//5
f 365//5 386//5 387//5 366//5
f 366//5 387//5 388//5 367//5
f 331//5 347//5 348//5 332//5
f 333//5 351//5 352//5 334//5
f 334//5 352//5 353//5 335//5
f 336//5 356//5 357//5 337//5
f 337//5 357//5 358//5 338//5
f 339//5 361//5 362//5 340//5
f 340//5 362//5 363//5 341//5
f 342//5 366//5 367//5 343//5
f 308//5 328//5 329//5 309//5
f 309//5 329//5 330//5 310//5
f 310//5 330//5 331//5 311//5
f 311//5 331//5 332//5 312//5
f 313//5 333//5 334//5 314//5
f 314//5 334//5 335//5 315//5
f 316//5 336//5 337//5 317//5
f 317//5 337//5 338//5 318//5
f 319//5 339//5 340//5 320//5
f 320//5 340//5 341//5 321//5
f 322//5 342//5 343//5 323//5
f 323//5 343//5 344//5 324//5
f 324//5 344//5 345//5 325//5
f 325//5 345//5 346//5 326//5
f 301//5 307//5 308//5 302//5
f 302//5 308//5 309//5 303//5
f 304//5 325//5 326//5 305//5
f 305//5 326//5 327//5 306//5
f 297//5 301//5 302//5 298//5
f 299//5 305//5 306//5 300//5
f 293//5 297//5 298//5 294//5
f 295//5 299//5 300//5 296//5
f 289//5 293//5 294//5 290//5
f 291//5 295//5 296//5 292//5
f 285//5 289//5 290//5 286//5
f 287//5 291//5 292//5 288//5
f 281//5 285//5 286//5 282//5
f 283//5 287//5 288//5 284//5
f 277//5 281//5 282//5 278//5
f 279//5 283//5 284//5 280//5
f 273//5 277//5 278//5 274//5
f 275//5 279//5 280//5 276//5
f 269//5 273//5 274//5 270//5
f 271//5 275//5 276//5 272//5
f 265//5 269//5 270//5 266//5
f 267//5 271//5 272//5 268//5
f 261//5 265//5 266//5 262//5
f 263//5 267//5 268//5 264//5
f 257//5 261//5 262//5 258//5
f 259//5 263//5 264//5 260//5
f 253//5 257//5 258//5 254//5
f 255//5 259//5 260//5 256//5
f 249//5 253//5 254//5 250//5
f 251//5 255//5 256//5 252//5
f 245//5 249//5 250//5 246//5
f 247//5 251//5 252//5 248//5
f 241//5 245//5 246//5 242//5
f 243//5 247//5 248//5 244//5
f 237//5 241//5 242//5 238//5
f 239//5 243//5 244//5 240//5
f 233//5 237//5 238//5 234//5
f 235//5 239//5 240//5 236//5
f 229//5 233//5 234//5 230//5
f 231//5 235//5 236//5 232//5
f 225//5 229//5 230//5 226//5
f 227//5 231//5 232//5 228//5
f 221//5 225//5 226//5 222//5
f 223//5 227//5 228//5 224//5
f 217//5 221//5 222//5 218//5
f 219//5 223//5 224//5 220//5
f 213//5 217//5 218//5 214//5
f 215//5 219//5 220//5 216//5
f 209//5 213//5 214//5 210//5
f 211//5 215//5 216//5 212//5
f 203//5 209//5 210//5 204//5
f 207//5 211//5 212//5 208//5
f 182//5 203//5 204//5 183//5
f 183//5 204//5 205//5 184//5
f 200//5 206//5 207//5 201//5
f 201//5 207//5 208//5 202//5
f 163//5 183//5 184//5 164//5
f 164//5 184//5 185//5 165//5
f 165//5 185//5 186//5 166//5
f 166//5 186//5 187//5 167//5
f 168//5 188//5 189//5 169//5
f 169//5 189//5 190//5 170//5
f 171//5 191//5 192//5 172//5
f 172//5 192//5 193//5 173//5
f 174//5 194//5 195//5 175//5
f 175//5 195//5 196//5 176//5
f 177//5 197//5 198//5 178//5
f 178//5 198//5 199//5 179//5
f 179//5 199//5 200//5 180//5
f 180//5 200//5 201//5 181//5
f 142//5 166//5 167//5 143//5
f 146//5 168//5 169//5 147//5
f 147//5 169//5 170//5 148//5
f 151//5 171//5 172//5 152//5
f 152//5 172//5 173//5 153//5
f 156//5 174//5 175//5 157//5
f 157//5 175//5 176//5 158//5
f 161//5 177//5 178//5 162//5
f 121//5 142//5 143//5 122//5
f 122//5 143//5 144//5 123//5
f 123//5 144//5 145//5 124//5
f 124//5 145//5 146//5 125//5
f 125//5 146//5 147//5 126//5
f 126//5 147//5 148//5 127//5
f 127//5 148//5 149//5 128//5
f 128//5 149//5 150//5 129//5
f 129//5 150//5 151//5 130//5
f 130//5 151//5 152//5 131//5
f 131//5 152//5 153//5 132//5
f 132//5 153//5 154//5 133//5
f 133//5 154//5 155//5 134//5
f 134//5 155//5 156//5 135//5
f 135//5 156//5 157//5 136//5
f 136//5 157//5 158//5 137//5
f 137//5 158//5 159//5 138//5
f 138//5 159//5 160//5 139//5
f 139//5 160//5 161//5 140//5
f 140//5 161//5 162//5 141//5
