# Blender 4.2.9 LTS
# www.blender.org
o logo_9BADB7
v -0.352941 0.044966 -0.382353
v -0.323529 0.044966 -0.382353
v -0.264706 0.044966 -0.352941
v -0.235294 0.044966 -0.352941
v -0.205882 0.044966 -0.352941
v -0.147059 0.044966 -0.352941
v -0.117647 0.044966 -0.352941
v -0.029412 0.044966 -0.352941
v 0.029412 0.044966 -0.352941
v 0.117647 0.044966 -0.352941
v 0.147059 0.044966 -0.352941
v 0.176471 0.044966 -0.352941
v 0.264706 0.044966 -0.352941
v 0.294118 0.044966 -0.352941
v 0.323529 0.044966 -0.352941
v 0.323529 0.044966 -0.382353
v 0.352941 0.044966 -0.352941
v 0.352941 0.044966 -0.382353
v -0.352941 0.025640 -0.352941
v -0.352941 0.025640 -0.382353
v -0.323529 0.025640 -0.382353
v 0.323529 0.025640 -0.382353
v 0.352941 0.025640 -0.352941
v 0.352941 0.025640 -0.382353
v -0.352941 0.044966 -0.352941
v -0.323529 0.044966 -0.352941
v -0.294118 0.044966 -0.352941
v -0.176471 0.044966 -0.352941
v -0.088235 0.044966 -0.352941
v -0.058824 0.044966 -0.352941
v 0.000000 0.044966 -0.352941
v 0.058824 0.044966 -0.352941
v 0.088235 0.044966 -0.352941
v 0.205882 0.044966 -0.352941
v 0.235294 0.044966 -0.352941
v -0.294118 0.058284 -0.352941
v -0.264706 0.058284 -0.352941
v -0.235294 0.058284 -0.352941
v -0.205882 0.058284 -0.352941
v -0.176471 0.058284 -0.352941
v -0.147059 0.058284 -0.352941
v -0.117647 0.058284 -0.352941
v -0.088235 0.058284 -0.352941
v -0.058824 0.058284 -0.352941
v -0.029412 0.058284 -0.352941
v 0.000000 0.058284 -0.352941
v 0.029412 0.058284 -0.352941
v 0.058824 0.058284 -0.352941
v 0.088235 0.058284 -0.352941
v 0.117647 0.058284 -0.352941
v 0.147059 0.058284 -0.352941
v 0.176471 0.058284 -0.352941
v 0.205882 0.058284 -0.352941
v 0.235294 0.058284 -0.352941
v 0.264706 0.058284 -0.352941
v 0.294118 0.058284 -0.352941
v -0.323529 0.070896 -0.294118
v -0.323529 0.070896 -0.323529
v -0.294118 0.070896 -0.294118
v -0.294118 0.070896 -0.323529
v -0.294118 0.070896 -0.352941
v -0.264706 0.070896 -0.323529
v -0.264706 0.070896 -0.352941
v -0.235294 0.070896 -0.323529
v -0.235294 0.070896 -0.352941
v -0.205882 0.070896 -0.323529
v -0.205882 0.070896 -0.352941
v -0.176471 0.070896 -0.323529
v -0.176471 0.070896 -0.352941
v -0.147059 0.070896 -0.323529
v -0.147059 0.070896 -0.352941
v -0.117647 0.070896 -0.323529
v -0.117647 0.070896 -0.352941
v -0.088235 0.070896 -0.323529
v -0.088235 0.070896 -0.352941
v -0.058824 0.070896 -0.323529
v -0.058824 0.070896 -0.352941
v -0.029412 0.070896 -0.323529
v -0.029412 0.070896 -0.352941
v 0.000000 0.070896 -0.323529
v 0.000000 0.070896 -0.352941
v 0.029412 0.070896 -0.323529
v 0.029412 0.070896 -0.352941
v 0.058824 0.070896 -0.323529
v 0.058824 0.070896 -0.352941
v 0.088235 0.070896 -0.323529
v 0.088235 0.070896 -0.352941
v 0.117647 0.070896 -0.323529
v 0.117647 0.070896 -0.352941
v 0.147059 0.070896 -0.323529
v 0.147059 0.070896 -0.352941
v 0.176471 0.070896 -0.323529
v 0.176471 0.070896 -0.352941
v 0.205882 0.070896 -0.323529
v 0.205882 0.070896 -0.352941
v 0.235294 0.070896 -0.323529
v 0.235294 0.070896 -0.352941
v 0.264706 0.070896 -0.323529
v 0.264706 0.070896 -0.352941
v 0.294118 0.070896 -0.294118
v 0.294118 0.070896 -0.323529
v 0.294118 0.070896 -0.352941
v 0.323529 0.070896 -0.294118
v 0.323529 0.070896 -0.323529
v -0.323529 0.063195 0.294118
v -0.323529 0.063195 0.264706
v -0.323529 0.063195 0.235294
v -0.323529 0.063195 0.205882
v -0.323529 0.063195 -0.235294
v -0.323529 0.063195 -0.264706
v -0.323529 0.063195 -0.294118
v -0.294118 0.063195 0.323529
v -0.294118 0.063195 0.294118
v -0.294118 0.063195 0.264706
v -0.294118 0.063195 0.235294
v -0.294118 0.063195 0.205882
v -0.294118 0.063195 -0.235294
v -0.294118 0.063195 -0.294118
v -0.294118 0.063195 -0.323529
v -0.264706 0.063195 0.323529
v -0.264706 0.063195 0.294118
v -0.264706 0.063195 -0.323529
v -0.235294 0.063195 0.323529
v -0.235294 0.063195 0.294118
v -0.235294 0.063195 -0.323529
v -0.205882 0.063195 0.323529
v -0.205882 0.063195 0.294118
v -0.205882 0.063195 -0.323529
v -0.176471 0.063195 0.323529
v -0.176471 0.063195 0.294118
v -0.176471 0.063195 -0.323529
v -0.147059 0.063195 0.323529
v -0.147059 0.063195 0.294118
v -0.147059 0.063195 -0.323529
v -0.117647 0.063195 0.323529
v -0.117647 0.063195 0.294118
v -0.117647 0.063195 -0.323529
v -0.088235 0.063195 -0.323529
v -0.058824 0.063195 -0.323529
v -0.029412 0.063195 -0.323529
v 0.000000 0.063195 -0.323529
v 0.029412 0.063195 -0.323529
v 0.058824 0.063195 -0.323529
v 0.088235 0.063195 -0.323529
v 0.117647 0.063195 -0.323529
v 0.147059 0.063195 -0.323529
v 0.176471 0.063195 -0.323529
v 0.205882 0.063195 0.323529
v 0.205882 0.063195 0.294118
v 0.205882 0.063195 -0.323529
v 0.235294 0.063195 0.323529
v 0.235294 0.063195 0.294118
v 0.235294 0.063195 -0.323529
v 0.264706 0.063195 0.323529
v 0.264706 0.063195 0.294118
v 0.264706 0.063195 -0.323529
v 0.294118 0.063195 0.323529
v 0.294118 0.063195 0.294118
v 0.294118 0.063195 0.264706
v 0.294118 0.063195 -0.235294
v 0.294118 0.063195 -0.264706
v 0.294118 0.063195 -0.294118
v 0.294118 0.063195 -0.323529
v 0.323529 0.063195 0.294118
v 0.323529 0.063195 0.264706
v 0.323529 0.063195 -0.235294
v 0.323529 0.063195 -0.264706
v 0.323529 0.063195 -0.294118
v -0.294118 0.057315 0.235294
v -0.294118 0.057315 0.205882
v -0.264706 0.057315 0.294118
v -0.235294 0.057315 0.294118
v -0.205882 0.057315 0.294118
v -0.176471 0.057315 0.294118
v -0.147059 0.057315 0.294118
v -0.117647 0.057315 0.294118
v 0.205882 0.057315 0.294118
v 0.235294 0.057315 0.294118
v 0.294118 0.057315 -0.235294
v 0.294118 0.057315 -0.264706
v -0.294118 0.063195 -0.264706
v -0.294118 0.057315 -0.235294
v -0.294118 0.057315 -0.264706
vn -0.0000 1.0000 -0.0000
vn -0.0000 -0.0000 -1.0000
vn 1.0000 -0.0000 -0.0000
vn -1.0000 -0.0000 -0.0000
vn -0.0000 -0.0000 1.0000
s 0
f 15//1 17//1 18//1 16//1
f 25//1 26//1 2//1 1//1
f 24//2 22//2 16//2 18//2
f 21//2 20//2 1//2 2//2
f 23//3 24//3 18//3 17//3
f 20//4 19//4 25//4 1//4
f 35//2 34//2 53//2 54//2
f 14//2 13//2 55//2 56//2
f 3//2 27//2 36//2 37//2
f 5//2 4//2 38//2 39//2
f 6//2 28//2 40//2 41//2
f 29//2 7//2 42//2 43//2
f 8//2 30//2 44//2 45//2
f 9//2 31//2 46//2 47//2
f 33//2 32//2 48//2 49//2
f 11//2 10//2 50//2 51//2
f 34//2 12//2 52//2 53//2
f 13//2 35//2 54//2 55//2
f 4//2 3//2 37//2 38//2
f 28//2 5//2 39//2 40//2
f 7//2 6//2 41//2 42//2
f 30//2 29//2 43//2 44//2
f 31//2 8//2 45//2 46//2
f 32//2 9//2 47//2 48//2
f 10//2 33//2 49//2 50//2
f 12//2 11//2 51//2 52//2
f 39//2 38//2 65//2 67//2
f 38//2 37//2 63//2 65//2
f 37//2 36//2 61//2 63//2
f 56//2 55//2 99//2 102//2
f 55//2 54//2 97//2 99//2
f 54//2 53//2 95//2 97//2
f 53//2 52//2 93//2 95//2
f 52//2 51//2 91//2 93//2
f 51//2 50//2 89//2 91//2
f 50//2 49//2 87//2 89//2
f 49//2 48//2 85//2 87//2
f 48//2 47//2 83//2 85//2
f 47//2 46//2 81//2 83//2
f 46//2 45//2 79//2 81//2
f 45//2 44//2 77//2 79//2
f 44//2 43//2 75//2 77//2
f 43//2 42//2 73//2 75//2
f 42//2 41//2 71//2 73//2
f 41//2 40//2 69//2 71//2
f 40//2 39//2 67//2 69//2
f 100//1 103//1 104//1 101//1
f 98//1 101//1 102//1 99//1
f 96//1 98//1 99//1 97//1
f 94//1 96//1 97//1 95//1
f 92//1 94//1 95//1 93//1
f 90//1 92//1 93//1 91//1
f 88//1 90//1 91//1 89//1
f 86//1 88//1 89//1 87//1
f 84//1 86//1 87//1 85//1
f 82//1 84//1 85//1 83//1
f 80//1 82//1 83//1 81//1
f 78//1 80//1 81//1 79//1
f 76//1 78//1 79//1 77//1
f 74//1 76//1 77//1 75//1
f 72//1 74//1 75//1 73//1
f 70//1 72//1 73//1 71//1
f 68//1 70//1 71//1 69//1
f 59//5 57//5 111//5 118//5
f 66//1 68//1 69//1 67//1
f 66//5 64//5 125//5 128//5
f 60//3 59//3 118//3 119//3
f 103//5 100//5 162//5 168//5
f 101//5 98//5 156//5 163//5
f 64//1 66//1 67//1 65//1
f 98//5 96//5 153//5 156//5
f 96//5 94//5 150//5 153//5
f 94//5 92//5 147//5 150//5
f 92//5 90//5 146//5 147//5
f 90//5 88//5 145//5 146//5
f 62//1 64//1 65//1 63//1
f 88//5 86//5 144//5 145//5
f 86//5 84//5 143//5 144//5
f 84//5 82//5 142//5 143//5
f 82//5 80//5 141//5 142//5
f 80//5 78//5 140//5 141//5
f 60//1 62//1 63//1 61//1
f 78//5 76//5 139//5 140//5
f 100//4 101//4 163//4 162//4
f 76//5 74//5 138//5 139//5
f 74//5 72//5 137//5 138//5
f 72//5 70//5 134//5 137//5
f 64//5 62//5 122//5 125//5
f 70//5 68//5 131//5 134//5
f 62//5 60//5 119//5 122//5
f 68//5 66//5 128//5 131//5
f 57//1 59//1 60//1 58//1
f 158//1 164//1 165//1 159//1
f 160//1 166//1 167//1 161//1
f 154//1 157//1 158//1 155//1
f 148//1 151//1 152//1 149//1
f 132//1 135//1 136//1 133//1
f 160//4 161//4 180//4 179//4
f 126//1 129//1 130//1 127//1
f 133//2 136//2 176//2 175//2
f 123//1 126//1 127//1 124//1
f 127//2 130//2 174//2 173//2
f 116//3 115//3 169//3 170//3
f 120//1 123//1 124//1 121//1
f 124//2 127//2 173//2 172//2
f 149//2 152//2 178//2 177//2
f 121//2 124//2 172//2 171//2
f 112//1 120//1 121//1 113//1
f 105//1 113//1 114//1 106//1
f 107//1 115//1 116//1 108//1
f 109//1 117//1 181//1 110//1
f 181//3 117//3 182//3 183//3
