# Blender 4.2.9 LTS
# www.blender.org
o logo_524B24
v -0.382353 0.044966 0.176471
v -0.382353 0.044966 0.117647
v -0.382353 0.044966 0.029412
v -0.382353 0.044966 -0.117647
v -0.382353 0.044966 -0.264706
v -0.352941 0.044966 0.264706
v -0.352941 0.044966 0.176471
v -0.352941 0.044966 0.117647
v -0.352941 0.044966 0.029412
v -0.352941 0.044966 -0.029412
v -0.352941 0.044966 -0.117647
v -0.352941 0.044966 -0.176471
v -0.352941 0.044966 -0.264706
v 0.352941 0.044966 0.264706
v 0.352941 0.044966 0.176471
v 0.352941 0.044966 0.117647
v 0.352941 0.044966 -0.029412
v 0.352941 0.044966 -0.117647
v 0.352941 0.044966 -0.176471
v 0.352941 0.044966 -0.264706
v 0.382353 0.044966 0.264706
v 0.382353 0.044966 0.176471
v 0.382353 0.044966 -0.029412
v 0.382353 0.044966 -0.176471
v -0.382353 0.044966 0.264706
v -0.382353 0.044966 -0.029412
v -0.382353 0.044966 -0.176471
v 0.352941 0.044966 0.029412
v 0.382353 0.044966 0.117647
v 0.382353 0.044966 0.029412
v 0.382353 0.044966 -0.117647
v 0.382353 0.044966 -0.264706
v -0.382353 0.058284 0.264706
v -0.382353 0.058284 0.235294
v -0.382353 0.058284 0.205882
v -0.382353 0.058284 0.176471
v -0.382353 0.058284 0.117647
v -0.382353 0.058284 0.088235
v -0.382353 0.058284 0.058824
v -0.382353 0.058284 0.029412
v -0.382353 0.058284 -0.029412
v -0.382353 0.058284 -0.058824
v -0.382353 0.058284 -0.088235
v -0.382353 0.058284 -0.117647
v -0.382353 0.058284 -0.176471
v -0.382353 0.058284 -0.205882
v -0.382353 0.058284 -0.235294
v -0.382353 0.058284 -0.264706
v -0.352941 0.058284 0.264706
v -0.352941 0.058284 0.235294
v -0.352941 0.058284 0.205882
v -0.352941 0.058284 0.176471
v -0.352941 0.058284 0.117647
v -0.352941 0.058284 0.088235
v -0.352941 0.058284 0.058824
v -0.352941 0.058284 0.029412
v -0.352941 0.058284 -0.029412
v -0.352941 0.058284 -0.058824
v -0.352941 0.058284 -0.088235
v -0.352941 0.058284 -0.117647
v -0.352941 0.058284 -0.176471
v -0.352941 0.058284 -0.205882
v -0.352941 0.058284 -0.235294
v -0.352941 0.058284 -0.264706
v 0.352941 0.058284 0.264706
v 0.352941 0.058284 0.235294
v 0.352941 0.058284 0.205882
v 0.352941 0.058284 0.176471
v 0.352941 0.058284 0.117647
v 0.352941 0.058284 0.088235
v 0.352941 0.058284 0.058824
v 0.352941 0.058284 0.029412
v 0.352941 0.058284 -0.029412
v 0.352941 0.058284 -0.058824
v 0.352941 0.058284 -0.088235
v 0.352941 0.058284 -0.117647
v 0.352941 0.058284 -0.176471
v 0.352941 0.058284 -0.205882
v 0.352941 0.058284 -0.235294
v 0.352941 0.058284 -0.264706
v 0.382353 0.058284 0.264706
v 0.382353 0.058284 0.235294
v 0.382353 0.058284 0.205882
v 0.382353 0.058284 0.176471
v 0.382353 0.058284 0.117647
v 0.382353 0.058284 0.088235
v 0.382353 0.058284 0.058824
v 0.382353 0.058284 0.029412
v 0.382353 0.058284 -0.029412
v 0.382353 0.058284 -0.058824
v 0.382353 0.058284 -0.088235
v 0.382353 0.058284 -0.117647
v 0.382353 0.058284 -0.176471
v 0.382353 0.058284 -0.205882
v 0.382353 0.058284 -0.235294
v 0.382353 0.058284 -0.264706
vn -0.0000 -0.0000 1.0000
vn -0.0000 -0.0000 -1.0000
vn -0.0000 1.0000 -0.0000
s 0
f 14//1 21//1 81//1 65//1
f 13//2 5//2 48//2 64//2
f 27//1 12//1 61//1 45//1
f 32//2 20//2 80//2 96//2
f 11//2 4//2 44//2 60//2
f 19//1 24//1 93//1 77//1
f 26//1 10//1 57//1 41//1
f 31//2 18//2 76//2 92//2
f 9//2 3//2 40//2 56//2
f 17//1 23//1 89//1 73//1
f 2//1 8//1 53//1 37//1
f 30//2 28//2 72//2 88//2
f 7//2 1//2 36//2 52//2
f 16//1 29//1 85//1 69//1
f 25//1 6//1 49//1 33//1
f 22//2 15//2 68//2 84//2
f 65//3 81//3 82//3 66//3
f 66//3 82//3 83//3 67//3
f 67//3 83//3 84//3 68//3
f 69//3 85//3 86//3 70//3
f 70//3 86//3 87//3 71//3
f 71//3 87//3 88//3 72//3
f 73//3 89//3 90//3 74//3
f 74//3 90//3 91//3 75//3
f 75//3 91//3 92//3 76//3
f 77//3 93//3 94//3 78//3
f 78//3 94//3 95//3 79//3
f 79//3 95//3 96//3 80//3
f 33//3 49//3 50//3 34//3
f 34//3 50//3 51//3 35//3
f 35//3 51//3 52//3 36//3
f 37//3 53//3 54//3 38//3
f 38//3 54//3 55//3 39//3
f 39//3 55//3 56//3 40//3
f 41//3 57//3 58//3 42//3
f 42//3 58//3 59//3 43//3
f 43//3 59//3 60//3 44//3
f 45//3 61//3 62//3 46//3
f 46//3 62//3 63//3 47//3
f 47//3 63//3 64//3 48//3
