# Blender 4.2.9 LTS
# www.blender.org
o logo_FFFFFF
v -0.205882 0.057315 -0.058824
v -0.029412 0.057315 -0.058824
v -0.058824 0.057315 -0.058824
v -0.088235 0.057315 -0.058824
v -0.147059 0.057315 -0.058824
v -0.176471 0.057315 -0.058824
v -0.058824 0.057315 -0.264706
v -0.088235 0.057315 -0.264706
v -0.117647 0.057315 -0.264706
v -0.147059 0.057315 -0.264706
v -0.176471 0.057315 -0.264706
v -0.205882 0.057315 -0.088235
v -0.205882 0.057315 -0.117647
v -0.205882 0.057315 -0.147059
v -0.205882 0.057315 -0.176471
v -0.205882 0.057315 -0.205882
v -0.205882 0.057315 -0.235294
v -0.029412 0.057315 -0.235294
v -0.029412 0.057315 -0.205882
v -0.029412 0.057315 -0.176471
v -0.029412 0.057315 -0.147059
v -0.029412 0.057315 -0.117647
v -0.029412 0.057315 -0.088235
v -0.058824 0.057315 -0.235294
v -0.058824 0.057315 -0.205882
v -0.058824 0.057315 -0.176471
v -0.058824 0.057315 -0.147059
v -0.058824 0.057315 -0.117647
v -0.058824 0.057315 -0.088235
v -0.088235 0.057315 -0.235294
v -0.088235 0.057315 -0.205882
v -0.088235 0.057315 -0.176471
v -0.088235 0.057315 -0.147059
v -0.088235 0.057315 -0.117647
v -0.088235 0.057315 -0.088235
v -0.117647 0.057315 -0.235294
v -0.117647 0.057315 -0.205882
v -0.117647 0.057315 -0.176471
v -0.117647 0.057315 -0.147059
v -0.117647 0.057315 -0.117647
v -0.117647 0.057315 -0.088235
v -0.147059 0.057315 -0.235294
v -0.147059 0.057315 -0.205882
v -0.147059 0.057315 -0.176471
v -0.147059 0.057315 -0.147059
v -0.147059 0.057315 -0.117647
v -0.147059 0.057315 -0.088235
v -0.176471 0.057315 -0.235294
v -0.176471 0.057315 -0.205882
v -0.176471 0.057315 -0.176471
v -0.176471 0.057315 -0.147059
v -0.176471 0.057315 -0.117647
v -0.176471 0.057315 -0.088235
v 0.176471 0.057315 -0.058824
v 0.147059 0.057315 -0.058824
v 0.117647 0.057315 -0.058824
v 0.088235 0.057315 -0.058824
v 0.058824 0.057315 -0.058824
v 0.176471 0.057315 -0.264706
v 0.147059 0.057315 -0.264706
v 0.117647 0.057315 -0.264706
v 0.088235 0.057315 -0.264706
v 0.058824 0.057315 -0.264706
v 0.205882 0.057315 -0.088235
v 0.205882 0.057315 -0.117647
v 0.205882 0.057315 -0.147059
v 0.205882 0.057315 -0.176471
v 0.205882 0.057315 -0.205882
v 0.205882 0.057315 -0.235294
v 0.029412 0.057315 -0.235294
v 0.029412 0.057315 -0.205882
v 0.029412 0.057315 -0.176471
v 0.029412 0.057315 -0.147059
v 0.029412 0.057315 -0.117647
v 0.029412 0.057315 -0.088235
v 0.176471 0.057315 -0.235294
v 0.176471 0.057315 -0.205882
v 0.176471 0.057315 -0.176471
v 0.176471 0.057315 -0.147059
v 0.176471 0.057315 -0.117647
v 0.176471 0.057315 -0.088235
v 0.147059 0.057315 -0.235294
v 0.147059 0.057315 -0.205882
v 0.147059 0.057315 -0.176471
v 0.147059 0.057315 -0.147059
v 0.147059 0.057315 -0.117647
v 0.147059 0.057315 -0.088235
v 0.117647 0.057315 -0.235294
v 0.117647 0.057315 -0.205882
v 0.117647 0.057315 -0.176471
v 0.117647 0.057315 -0.147059
v 0.117647 0.057315 -0.117647
v 0.117647 0.057315 -0.088235
v 0.088235 0.057315 -0.235294
v 0.088235 0.057315 -0.205882
v 0.088235 0.057315 -0.176471
v 0.088235 0.057315 -0.147059
v 0.088235 0.057315 -0.117647
v 0.088235 0.057315 -0.088235
v 0.058824 0.057315 -0.235294
v 0.058824 0.057315 -0.205882
v 0.058824 0.057315 -0.176471
v 0.058824 0.057315 -0.147059
v 0.058824 0.057315 -0.117647
v 0.058824 0.057315 -0.088235
vn -0.0000 1.0000 -0.0000
s 0
f 24//1 7//1 8//1 30//1
f 30//1 8//1 9//1 36//1
f 36//1 9//1 10//1 42//1
f 42//1 10//1 11//1 48//1
f 5//1 47//1 53//1 6//1
f 47//1 46//1 52//1 53//1
f 46//1 45//1 51//1 52//1
f 45//1 44//1 50//1 51//1
f 44//1 43//1 49//1 50//1
f 43//1 42//1 48//1 49//1
f 40//1 39//1 45//1 46//1
f 39//1 38//1 44//1 45//1
f 37//1 36//1 42//1 43//1
f 35//1 34//1 40//1 41//1
f 34//1 33//1 39//1 40//1
f 33//1 32//1 38//1 39//1
f 31//1 30//1 36//1 37//1
f 3//1 29//1 35//1 4//1
f 29//1 28//1 34//1 35//1
f 28//1 27//1 33//1 34//1
f 27//1 26//1 32//1 33//1
f 26//1 25//1 31//1 32//1
f 25//1 24//1 30//1 31//1
f 2//1 23//1 29//1 3//1
f 23//1 22//1 28//1 29//1
f 21//1 20//1 26//1 27//1
f 20//1 19//1 25//1 26//1
f 19//1 18//1 24//1 25//1
f 6//1 53//1 12//1 1//1
f 53//1 52//1 13//1 12//1
f 52//1 51//1 14//1 13//1
f 51//1 50//1 15//1 14//1
f 50//1 49//1 16//1 15//1
f 49//1 48//1 17//1 16//1
f 76//1 59//1 60//1 82//1
f 82//1 60//1 61//1 88//1
f 88//1 61//1 62//1 94//1
f 94//1 62//1 63//1 100//1
f 57//1 99//1 105//1 58//1
f 99//1 98//1 104//1 105//1
f 98//1 97//1 103//1 104//1
f 97//1 96//1 102//1 103//1
f 96//1 95//1 101//1 102//1
f 95//1 94//1 100//1 101//1
f 56//1 93//1 99//1 57//1
f 93//1 92//1 98//1 99//1
f 89//1 88//1 94//1 95//1
f 55//1 87//1 93//1 56//1
f 87//1 86//1 92//1 93//1
f 85//1 84//1 90//1 91//1
f 83//1 82//1 88//1 89//1
f 54//1 81//1 87//1 55//1
f 81//1 80//1 86//1 87//1
f 80//1 79//1 85//1 86//1
f 79//1 78//1 84//1 85//1
f 77//1 76//1 82//1 83//1
f 64//1 65//1 80//1 81//1
f 65//1 66//1 79//1 80//1
f 66//1 67//1 78//1 79//1
f 68//1 69//1 76//1 77//1
f 105//1 104//1 74//1 75//1
f 104//1 103//1 73//1 74//1
f 103//1 102//1 72//1 73//1
f 102//1 101//1 71//1 72//1
f 101//1 100//1 70//1 71//1
